<?xml version="1.0" encoding="utf-8"?>
<!-- Generator: Adobe Illustrator 22.1.0, SVG Export Plug-In . SVG Version: 6.00 Build 0)  -->
<svg version="1.1" id="Capa_1" xmlns="http://www.w3.org/2000/svg" xmlns:xlink="http://www.w3.org/1999/xlink" x="0px" y="0px"
	 viewBox="0 0 55 55" style="enable-background:new 0 0 55 55;" xml:space="preserve">
<style type="text/css">
	.st0{fill:#A46F3E;}
	.st1{fill:#FBD490;}
	.st2{fill:#704928;}
	.st3{fill:#775131;}
</style>
<path class="st0" d="M47,8.5H28h-1H8c-4.4,0-8,3.6-8,8v6c0,2.2,0.9,4.2,2.4,5.7C3.5,29.2,4,30.8,4,32.3v7.2c0,3.9,3.2,7,7,7h16h1
	h16.8c3.4,0,6.2-2.8,6.2-6.2v-7.8c0-1.7,0.6-3.3,1.8-4.6c1.4-1.4,2.2-3.4,2.2-5.5v-6C55,12.1,51.4,8.5,47,8.5z"/>
<path class="st1" d="M22.8,8.5H8c-4.4,0-8,3.6-8,8v6c0,2.2,0.9,4.2,2.4,5.7C3.5,29.2,4,30.8,4,32.3v7.2c0,3.9,3.2,7,7,7h7.5
	c3.5,0,6.4-2.9,6.4-6.4v-8.2c0-1.4,0.6-2.7,1.6-3.7c1.5-1.4,2.4-3.5,2.4-5.7v-7.8C29,11.3,26.2,8.5,22.8,8.5z"/>
<path class="st2" d="M46,30.5h-9c-0.6,0-1-0.4-1-1s0.4-1,1-1h9c0.6,0,1,0.4,1,1S46.6,30.5,46,30.5z"/>
<path class="st2" d="M33,30.5h-2c-0.6,0-1-0.4-1-1s0.4-1,1-1h2c0.6,0,1,0.4,1,1S33.6,30.5,33,30.5z"/>
<path class="st0" d="M9.5,35c-0.3,0-0.5-0.1-0.7-0.3c-0.4-0.4-0.4-1,0-1.4l1.5-1.5c0.4-0.4,1-0.4,1.4,0c0.4,0.4,0.4,1,0,1.4
	l-1.5,1.5C10,34.9,9.8,35,9.5,35z"/>
<path class="st0" d="M17.6,27.9c-0.2,0-0.4-0.1-0.6-0.2l-1.7-1.3c-0.4-0.3-0.5-1-0.2-1.4c0.3-0.4,1-0.5,1.4-0.2l1.7,1.3
	c0.4,0.3,0.5,1,0.2,1.4C18.2,27.8,17.9,27.9,17.6,27.9z"/>
<path class="st0" d="M12,42.5c-0.2,0-0.4-0.1-0.6-0.2L9.7,41c-0.4-0.3-0.5-1-0.2-1.4c0.3-0.4,1-0.5,1.4-0.2l1.7,1.3
	c0.4,0.3,0.5,1,0.2,1.4C12.6,42.4,12.3,42.5,12,42.5z"/>
<path class="st0" d="M17.1,38.4c-0.4,0-0.8-0.3-1-0.7c-0.2-0.5,0.1-1.1,0.7-1.2l2-0.6c0.5-0.2,1.1,0.1,1.2,0.7s-0.1,1.1-0.7,1.2
	l-2,0.6C17.3,38.4,17.2,38.4,17.1,38.4z"/>
<path class="st0" d="M5.3,17c-0.3,0-0.5-0.1-0.7-0.3c-0.4-0.4-0.4-1,0-1.4l1.5-1.5c0.4-0.4,1-0.4,1.4,0s0.4,1,0,1.4L6,16.7
	C5.8,16.9,5.6,17,5.3,17z"/>
<path class="st0" d="M7.8,24.5c-0.2,0-0.4-0.1-0.6-0.2L5.5,23c-0.4-0.3-0.5-1-0.2-1.4c0.3-0.4,1-0.5,1.4-0.2l1.7,1.3
	c0.4,0.3,0.5,1,0.2,1.4C8.4,24.4,8.1,24.5,7.8,24.5z"/>
<path class="st0" d="M24,23.9c-0.5,0-0.9-0.3-1-0.8L22.7,21c-0.1-0.5,0.3-1.1,0.8-1.2c0.5-0.1,1.1,0.3,1.2,0.8l0.4,2.1
	c0.1,0.5-0.3,1.1-0.8,1.2C24.1,23.9,24.1,23.9,24,23.9z"/>
<path class="st0" d="M13,20.4c-0.4,0-0.8-0.3-1-0.7c-0.2-0.5,0.1-1.1,0.7-1.2l2-0.6c0.5-0.2,1.1,0.1,1.2,0.7
	c0.2,0.5-0.1,1.1-0.7,1.2l-2,0.6C13.2,20.4,13.1,20.4,13,20.4z"/>
<path class="st0" d="M21,16.3c-0.1,0-0.2,0-0.4-0.1l-2-0.8c-0.5-0.2-0.8-0.8-0.6-1.3c0.2-0.5,0.8-0.8,1.3-0.6l2,0.8
	c0.5,0.2,0.8,0.8,0.6,1.3C21.8,16,21.4,16.3,21,16.3z"/>
<path class="st3" d="M46.6,13.9c0.6-1.7,0.7-3.6-1-5.1c-0.2-0.2-0.5-0.3-0.8-0.3h-1.2c-1,0-1.6,1.1-1,1.9c0.7,1,1.3,2.1,1.7,3.4
	C44.6,15,46.2,15,46.6,13.9z"/>
<path class="st3" d="M37.2,13.9c0.6-1.7,0.7-3.6-1-5.1c-0.2-0.2-0.5-0.3-0.8-0.3h-1.2c-1,0-1.6,1.1-1,1.9c0.7,1,1.3,2.1,1.7,3.4
	C35.2,15,36.8,15,37.2,13.9z"/>
</svg>
