<?xml version="1.0" encoding="iso-8859-1"?>
<!-- Generator: Adobe Illustrator 19.0.0, SVG Export Plug-In . SVG Version: 6.00 Build 0)  -->
<svg xmlns="http://www.w3.org/2000/svg" xmlns:xlink="http://www.w3.org/1999/xlink" version="1.1" id="Capa_1" x="0px" y="0px" viewBox="0 0 512 512" style="enable-background:new 0 0 512 512;" xml:space="preserve" width="512" height="512">
<g>
	<path d="M449.549,91.51H62.451C28.016,91.51,0,119.525,0,153.961c0,26.351,16.772,49.57,40.672,58.52v208.01h430.656v-208.01   c23.899-8.95,40.672-32.169,40.672-58.52C512,119.525,483.984,91.51,449.549,91.51z M454.203,186.073l-12.875,1.842V390.49h-99.507   v-178.01c23.899-8.95,40.672-32.169,40.672-58.52c0-11.876-3.335-22.988-9.113-32.451h76.169c17.894,0,32.451,14.558,32.451,32.451   C482,170,470.05,183.805,454.203,186.073z M70.672,390.49V187.915l-12.875-1.842C41.95,183.805,30,170,30,153.961   c0-17.893,14.558-32.451,32.451-32.451h257.592c17.893,0,32.45,14.558,32.45,32.451c0,16.039-11.95,29.844-27.797,32.112   l-12.875,1.842V390.49H70.672z"/>
	<rect x="218.458" y="233.304" transform="matrix(-0.7071 -0.7071 0.7071 -0.7071 219.7475 596.717)" width="30" height="39.086"/>
	<rect x="132.943" y="180.153" transform="matrix(0.7071 0.7071 -0.7071 0.7071 182.6573 -50.6647)" width="39.086" height="30"/>
	<rect x="148.152" y="303.609" transform="matrix(0.7071 -0.7071 0.7071 0.7071 -180.7194 210.0226)" width="30" height="39.087"/>
</g>















</svg>
