<?xml version="1.0" encoding="utf-8"?>
<!-- Generator: Adobe Illustrator 21.0.0, SVG Export Plug-In . SVG Version: 6.00 Build 0)  -->
<svg version="1.1" id="Capa_1" xmlns="http://www.w3.org/2000/svg" xmlns:xlink="http://www.w3.org/1999/xlink" x="0px" y="0px"
	 viewBox="0 0 28 28" style="enable-background:new 0 0 28 28;" xml:space="preserve">
<style type="text/css">
	.st0{fill:none;}
</style>
<g>
	<path class="st0" d="M0,0h28v28H0V0z"/>
	<path d="M24.5,4.2H3.5C1.6,4.2,0,5.8,0,7.7c0,1.4,0.9,2.7,2.2,3.3v12.8h23.6V11c1.3-0.5,2.2-1.8,2.2-3.3C28,5.8,26.4,4.2,24.5,4.2z
		 M3.3,9.3C2.5,9.2,2,8.5,2,7.7c0-0.9,0.7-1.6,1.6-1.6h13.9c0.9,0,1.6,0.7,1.6,1.6c0,0.8-0.6,1.5-1.4,1.6l-0.8,0.1v12.4H4.2V9.4
		L3.3,9.3z M23.8,9.4v12.4h-5V11c1.3-0.5,2.2-1.8,2.2-3.3c0-0.5-0.1-1.1-0.4-1.6h3.8c0.9,0,1.6,0.7,1.6,1.6c0,0.8-0.6,1.5-1.4,1.6
		L23.8,9.4z"/>
</g>
</svg>
