<svg height="512pt" viewBox="0 -96 512 512" width="512pt" xmlns="http://www.w3.org/2000/svg"><path d="m480 320h-288v-320h208c61.761719 0 112 50.257812 112 112v6.625l-32 32zm0 0" fill="#c59969"/><path d="m288 320h-256v-169.375l-32-32v-6.625c0-61.742188 50.238281-112 112-112h96c61.761719 0 112 50.257812 112 112v6.625l-32 32zm0 0" fill="#ecce93"/><g fill="#fff"><path d="m96 64h32v32h-32zm0 0"/><path d="m128 128h32v32h-32zm0 0"/><path d="m96 192h32v32h-32zm0 0"/><path d="m160 224h32v32h-32zm0 0"/><path d="m192 96h32v32h-32zm0 0"/></g></svg>