<svg height="512pt" viewBox="0 0 512 512" width="512pt" xmlns="http://www.w3.org/2000/svg"><path d="m32 128h448v320h-448zm0 0" fill="#aa854b"/><path d="m32 272h448v64h-448zm0 0" fill="#916e40"/><path d="m512 160h-512v-16c0-79.40625 64.59375-144 144-144h224c79.40625 0 144 64.59375 144 144zm0 0" fill="#ecce93"/><g fill="#fff"><path d="m304 64h32v32h-32zm0 0"/><path d="m240 64h32v32h-32zm0 0"/><path d="m176 64h32v32h-32zm0 0"/></g><path d="m432 512h-352c-44.113281 0-80-35.886719-80-80v-16h512v16c0 44.113281-35.886719 80-80 80zm0 0" fill="#ecce93"/><path d="m.945312 128c-.59375 5.265625-.945312 10.59375-.945312 16v16h512v-16c0-5.40625-.351562-10.734375-.945312-16zm0 0" fill="#e5bd76"/><path d="m432 480h-352c-38.625 0-70.945312-27.535156-78.382812-64h-1.617188v16c0 44.113281 35.886719 80 80 80h352c44.113281 0 80-35.886719 80-80v-16h-1.617188c-7.4375 36.464844-39.757812 64-78.382812 64zm0 0" fill="#e5bd76"/><path d="m256 356.734375-224-196.734375h448zm0 0" fill="#916e40"/><path d="m256 404.71875-161.265625-132.71875h322.53125zm0 0" fill="#fcc515"/><path d="m256 292.71875-161.265625-132.71875h322.53125zm0 0" fill="#ffda47"/></svg>