<?xml version="1.0" encoding="utf-8"?>
<!-- Generator: Adobe Illustrator 21.0.0, SVG Export Plug-In . SVG Version: 6.00 Build 0)  -->
<svg version="1.1" id="Capa_1" xmlns="http://www.w3.org/2000/svg" xmlns:xlink="http://www.w3.org/1999/xlink" x="0px" y="0px"
	 viewBox="0 0 18 18" style="enable-background:new 0 0 18 18;" xml:space="preserve">
<style type="text/css">
	.st0{fill:none;}
</style>
<g>
	<path class="st0" d="M0,0h18v18H0V0z"/>
	<path d="M15.4,14.3c1.4,0,2.6-1.2,2.6-2.6s-1.2-2.6-2.6-2.6h-0.8l0-0.9c0-0.2-0.1-0.5-0.2-0.7c-0.2-0.2-0.4-0.3-0.7-0.3H1.6
		C1.4,7.2,1.1,7.3,1,7.5C0.8,7.7,0.7,7.9,0.7,8.2L1,13.3c0,0.9,0.4,1.8,1.1,2.4H0.9c-0.5,0-0.9,0.4-0.9,0.9s0.4,0.9,0.9,0.9h13.6
		c0.5,0,0.9-0.4,0.9-0.9s-0.4-0.9-0.9-0.9h-1.2c0.4-0.4,0.7-0.9,0.9-1.4H15.4z M16.2,11.7c0,0.4-0.4,0.8-0.8,0.8h-1l0.1-1.6h0.9
		C15.8,11,16.2,11.3,16.2,11.7z M2.8,13.2L2.6,9.1h10.2l-0.2,4.2c0,1-0.8,1.7-1.8,1.7H4.6C3.6,14.9,2.8,14.2,2.8,13.2z M4.6,5.1
		C4.5,4.2,4.7,3.4,5.2,2.8l0.2-0.2c0.4-0.5,0.8-0.9,0.8-1.4c0-0.2,0.2-0.4,0.4-0.6c0.2-0.1,0.4-0.2,0.7-0.2c0.2,0,0.4,0.2,0.6,0.4
		C8,1,8.1,1.3,8.1,1.5c-0.2,1-0.8,1.6-1.3,2.2L6.6,4C6.4,4.2,6.3,4.5,6.4,4.8c0,0.3,0.2,0.5,0.4,0.7C7,5.6,7.2,5.8,7.2,6
		c0.1,0.2,0,0.5-0.1,0.7C7,7,6.7,7.1,6.3,7.1C6.2,7.1,6,7.1,5.9,7l0,0C5.2,6.6,4.7,5.9,4.6,5.1z M8.4,2.2c0.3-0.3,0.5-0.7,0.5-1
		C9,0.7,9.5,0.4,10,0.5c0.5,0.1,0.8,0.5,0.8,1c-0.1,0.7-0.5,1.4-1,2C9,4.2,9,4.6,9.1,4.9c0.1,0.2,0.2,0.4,0.4,0.6
		c0.2,0.1,0.3,0.4,0.3,0.6c0,0.2,0,0.5-0.2,0.7C9.6,7,9.3,7.1,9,7.1c-0.2,0-0.4-0.1-0.5-0.2C8,6.6,7.6,6.1,7.4,5.6
		C7,4.5,7.3,3.4,8.4,2.2z"/>
</g>
</svg>
