<?xml version="1.0" encoding="utf-8"?>
<!-- Generator: Adobe Illustrator 21.0.0, SVG Export Plug-In . SVG Version: 6.00 Build 0)  -->
<svg version="1.1" id="Layer_1" xmlns="http://www.w3.org/2000/svg" xmlns:xlink="http://www.w3.org/1999/xlink" x="0px" y="0px"
	 viewBox="0 0 16 16" style="enable-background:new 0 0 16 16;" xml:space="preserve">
<style type="text/css">
	.st0{fill:none;}
</style>
<g>
	<path class="st0" d="M0,0h16v16H0V0z"/>
	<path d="M15.6,4.1L7,13.4c-0.5,0.4-1,0.6-1.6,0.6c-0.6,0-1.2-0.2-1.6-0.6l-3.4-3.1C0.1,10,0,9.7,0,9.3C0,9,0.1,8.7,0.4,8.4
		C0.9,8,1.6,8,2.1,8.4l3.1,2.8c0.1,0.1,0.3,0.1,0.4,0l8.4-9c0.5-0.4,1.4-0.3,1.8,0.2C16.1,2.9,16.1,3.6,15.6,4.1z"/>
</g>
</svg>
