<?xml version="1.0" encoding="utf-8"?>
<!-- Generator: Adobe Illustrator 21.0.0, SVG Export Plug-In . SVG Version: 6.00 Build 0)  -->
<svg version="1.1" id="Layer_1" xmlns="http://www.w3.org/2000/svg" xmlns:xlink="http://www.w3.org/1999/xlink" x="0px" y="0px"
	 viewBox="0 0 512 248" style="enable-background:new 0 0 512 248;" xml:space="preserve">
<style type="text/css">
	.st0{fill:#FDD835;}
</style>
<title>cheesebread-title</title>
<g>
	<g>
		<path class="st0" d="M47.8,23.1c-8.1,0-14.4,3.1-18.9,9.2c-4.5,6.1-6.7,14.6-6.7,25.6c0,22.7,8.5,34.1,25.6,34.1
			c7.2,0,15.8-1.8,26-5.4v18.1c-8.4,3.5-17.7,5.2-28,5.2c-14.8,0-26.2-4.5-34-13.5C3.9,87.4,0,74.5,0,57.7c0-10.6,1.9-19.9,5.8-27.9
			c3.9-8,9.4-14.1,16.6-18.3c7.2-4.3,15.7-6.4,25.4-6.4c9.9,0,19.8,2.4,29.8,7.2l-7,17.6c-3.8-1.8-7.6-3.4-11.5-4.7
			C55.3,23.8,51.5,23.1,47.8,23.1z"/>
		<path class="st0" d="M162.3,108.5H141V63c0-11.2-4.2-16.9-12.5-16.9c-5.9,0-10.2,2-12.9,6.1s-4,10.6-4,19.7v36.7H90.3V0h21.3v22.1
			c0,1.7-0.2,5.8-0.5,12.1l-0.5,6.3h1.1c4.7-7.6,12.3-11.4,22.6-11.4c9.2,0,16.1,2.5,20.8,7.4c4.7,4.9,7.1,12,7.1,21.2V108.5z"/>
		<path class="st0" d="M217.9,109.9c-12.5,0-22.4-3.5-29.4-10.4c-7.1-6.9-10.6-16.7-10.6-29.4c0-13.1,3.3-23.2,9.8-30.3
			c6.5-7.1,15.6-10.7,27.1-10.7c11,0,19.6,3.1,25.7,9.4c6.1,6.3,9.2,14.9,9.2,26v10.3h-50.3c0.2,6,2,10.8,5.4,14.2
			c3.3,3.4,8,5.1,14.1,5.1c4.7,0,9.1-0.5,13.3-1.5c4.2-1,8.6-2.5,13.1-4.7v16.5c-3.7,1.9-7.7,3.2-11.9,4.1
			C229.1,109.4,223.9,109.9,217.9,109.9z M214.9,44.2c-4.5,0-8,1.4-10.6,4.3c-2.6,2.9-4,6.9-4.4,12.2h29.8
			c-0.1-5.3-1.5-9.3-4.1-12.2C222.9,45.6,219.4,44.2,214.9,44.2z"/>
		<path class="st0" d="M305.3,109.9c-12.5,0-22.4-3.5-29.4-10.4c-7.1-6.9-10.6-16.7-10.6-29.4c0-13.1,3.3-23.2,9.8-30.3
			c6.5-7.1,15.6-10.7,27.1-10.7c11,0,19.6,3.1,25.7,9.4s9.2,14.9,9.2,26v10.3h-50.3c0.2,6,2,10.8,5.4,14.2c3.3,3.4,8,5.1,14.1,5.1
			c4.7,0,9.1-0.5,13.3-1.5s8.6-2.5,13.1-4.7v16.5c-3.7,1.9-7.7,3.2-11.9,4.1C316.6,109.4,311.4,109.9,305.3,109.9z M302.3,44.2
			c-4.5,0-8,1.4-10.6,4.3c-2.6,2.9-4,6.9-4.4,12.2h29.8c-0.1-5.3-1.5-9.3-4.1-12.2S306.8,44.2,302.3,44.2z"/>
		<path class="st0" d="M418.2,85.3c0,8-2.8,14.1-8.3,18.3c-5.6,4.2-13.9,6.3-24.9,6.3c-5.7,0-10.5-0.4-14.5-1.2
			c-4-0.8-7.7-1.9-11.2-3.4V87.8c3.9,1.9,8.4,3.4,13.4,4.7c4.9,1.3,9.3,1.9,13.1,1.9c7.7,0,11.6-2.2,11.6-6.7c0-1.7-0.5-3-1.5-4.1
			c-1-1-2.8-2.2-5.3-3.6c-2.5-1.3-5.9-2.9-10-4.6c-6-2.5-10.4-4.8-13.2-7c-2.8-2.1-4.9-4.6-6.1-7.4c-1.3-2.8-1.9-6.2-1.9-10.2
			c0-6.9,2.7-12.3,8.1-16.1c5.4-3.8,13-5.7,22.8-5.7c9.4,0,18.5,2,27.4,6.1L411,50.5c-3.9-1.7-7.6-3-10.9-4.1
			c-3.4-1.1-6.9-1.6-10.4-1.6c-6.3,0-9.4,1.7-9.4,5.1c0,1.9,1,3.6,3,4.9c2,1.4,6.4,3.5,13.3,6.2c6.1,2.5,10.6,4.8,13.4,6.9
			c2.8,2.1,4.9,4.6,6.3,7.4C417.5,78.2,418.2,81.5,418.2,85.3z"/>
		<path class="st0" d="M480.2,109.9c-12.5,0-22.4-3.5-29.4-10.4c-7.1-6.9-10.6-16.7-10.6-29.4c0-13.1,3.3-23.2,9.8-30.3
			c6.5-7.1,15.6-10.7,27.1-10.7c11,0,19.6,3.1,25.7,9.4s9.2,14.9,9.2,26v10.3h-50.3c0.2,6,2,10.8,5.4,14.2c3.3,3.4,8,5.1,14.1,5.1
			c4.7,0,9.1-0.5,13.3-1.5c4.2-1,8.6-2.5,13.1-4.7v16.5c-3.7,1.9-7.7,3.2-11.9,4.1C491.5,109.4,486.3,109.9,480.2,109.9z
			 M477.2,44.2c-4.5,0-8,1.4-10.6,4.3c-2.6,2.9-4,6.9-4.4,12.2h29.8c-0.1-5.3-1.5-9.3-4.1-12.2C485.3,45.6,481.7,44.2,477.2,44.2z"
			/>
	</g>
	<g>
		<path class="st0" d="M101.4,246.6H75.1l-8-7.9c-8.9,6.2-18.9,9.3-30.1,9.3c-11.3,0-20.3-2.6-27-7.8C3.3,235,0,227.9,0,219.1
			c0-6.4,1.4-11.8,4.2-16.3c2.8-4.5,7.6-8.7,14.5-12.6c-3.5-4-6-7.8-7.6-11.5c-1.6-3.6-2.4-7.6-2.4-12c0-7.1,2.7-12.8,8.1-17.1
			c5.4-4.3,12.7-6.5,21.7-6.5c8.6,0,15.6,2,20.7,6c5.2,4,7.8,9.4,7.8,16.1c0,5.5-1.6,10.6-4.8,15.2c-3.2,4.6-8.4,8.9-15.5,13.1
			l19.8,19.3c3.3-5.4,6.2-12.4,8.6-21h22.2c-1.7,6.3-4,12.4-6.9,18.4c-2.9,6-6.3,11.3-10,15.9L101.4,246.6z M22.4,217
			c0,4,1.5,7.2,4.5,9.6c3,2.4,6.8,3.6,11.5,3.6c5.9,0,11.1-1.4,15.8-4.3l-23.1-23c-2.7,2-4.8,4.2-6.4,6.4
			C23.2,211.5,22.4,214.1,22.4,217z M47.4,167.6c0-2.5-0.8-4.4-2.5-5.8c-1.7-1.4-3.8-2.1-6.5-2.1c-3.1,0-5.6,0.7-7.4,2.2
			c-1.8,1.5-2.7,3.6-2.7,6.3c0,4.1,2.2,8.6,6.6,13.5c4-2.2,7.1-4.4,9.2-6.6C46.3,173,47.4,170.5,47.4,167.6z"/>
		<path class="st0" d="M114.2,144.7h31.7c14.5,0,24.9,2.1,31.5,6.2c6.5,4.1,9.8,10.7,9.8,19.6c0,6.1-1.4,11.1-4.3,15
			s-6.7,6.3-11.4,7v0.7c6.5,1.4,11.1,4.1,14,8.1c2.9,4,4.3,9.2,4.3,15.8c0,9.3-3.4,16.5-10.1,21.8c-6.7,5.2-15.8,7.8-27.4,7.8h-38.1
			V144.7z M135.8,185h12.5c5.9,0,10.1-0.9,12.7-2.7c2.6-1.8,3.9-4.8,3.9-9c0-3.9-1.4-6.7-4.3-8.4c-2.9-1.7-7.4-2.5-13.6-2.5h-11.4
			V185z M135.8,202.2v26.6h14.1c5.9,0,10.3-1.1,13.2-3.4c2.8-2.3,4.3-5.8,4.3-10.5c0-8.5-6-12.7-18.1-12.7H135.8z"/>
		<path class="st0" d="M252,167.2c2.9,0,5.3,0.2,7.2,0.6l-1.6,19.9c-1.7-0.5-3.8-0.7-6.3-0.7c-6.8,0-12.1,1.7-15.9,5.2
			c-3.8,3.5-5.7,8.4-5.7,14.6v39.7h-21.3v-77.9h16.1l3.1,13.1h1c2.4-4.4,5.7-7.9,9.8-10.6C242.6,168.5,247.1,167.2,252,167.2z"/>
		<path class="st0" d="M308.6,248c-12.5,0-22.4-3.5-29.4-10.4c-7.1-6.9-10.6-16.7-10.6-29.4c0-13.1,3.3-23.2,9.8-30.3
			c6.5-7.1,15.6-10.7,27.1-10.7c11,0,19.6,3.1,25.7,9.4c6.1,6.3,9.2,14.9,9.2,26v10.3h-50.3c0.2,6,2,10.8,5.4,14.2
			c3.3,3.4,8,5.1,14.1,5.1c4.7,0,9.1-0.5,13.3-1.5c4.2-1,8.6-2.5,13.1-4.7v16.5c-3.7,1.9-7.7,3.2-11.9,4.1
			C319.8,247.5,314.7,248,308.6,248z M305.6,182.3c-4.5,0-8,1.4-10.6,4.3c-2.6,2.9-4,6.9-4.4,12.2h29.8c-0.1-5.3-1.5-9.3-4.1-12.2
			C313.7,183.8,310.1,182.3,305.6,182.3z"/>
		<path class="st0" d="M407.1,246.6L403,236h-0.6c-3.6,4.5-7.3,7.6-11.1,9.4c-3.8,1.7-8.7,2.6-14.8,2.6c-7.5,0-13.4-2.1-17.7-6.4
			c-4.3-4.3-6.4-10.4-6.4-18.3c0-8.3,2.9-14.4,8.7-18.3c5.8-3.9,14.5-6.1,26.2-6.5l13.5-0.4v-3.4c0-7.9-4-11.9-12.1-11.9
			c-6.2,0-13.5,1.9-22,5.6l-7-14.4c9-4.7,18.9-7,29.8-7c10.5,0,18.5,2.3,24.1,6.8c5.6,4.6,8.4,11.5,8.4,20.8v51.9H407.1z
			 M400.9,210.5l-8.2,0.3c-6.2,0.2-10.8,1.3-13.8,3.3c-3,2-4.5,5.2-4.5,9.3c0,6,3.4,9,10.3,9c4.9,0,8.9-1.4,11.8-4.3
			c3-2.8,4.4-6.6,4.4-11.3V210.5z"/>
		<path class="st0" d="M468.6,248c-9.2,0-16.3-3.6-21.6-10.7c-5.2-7.1-7.8-17-7.8-29.6c0-12.8,2.7-22.7,8-29.9
			c5.3-7.1,12.7-10.7,22-10.7c9.8,0,17.3,3.8,22.4,11.4h0.7c-1.1-5.8-1.6-11-1.6-15.5v-25H512v108.5h-16.3l-4.1-10.1h-0.9
			C485.8,244.2,478.5,248,468.6,248z M476,231.1c5.4,0,9.4-1.6,12-4.7c2.5-3.2,3.9-8.5,4.1-16.1v-2.3c0-8.4-1.3-14.4-3.9-18
			c-2.6-3.6-6.8-5.4-12.6-5.4c-4.7,0-8.4,2-11.1,6c-2.6,4-3.9,9.9-3.9,17.5c0,7.7,1.3,13.4,4,17.3
			C467.3,229.1,471.1,231.1,476,231.1z"/>
	</g>
</g>
</svg>
