<?xml version="1.0" encoding="utf-8"?>
<!-- Generator: Adobe Illustrator 21.0.0, SVG Export Plug-In . SVG Version: 6.00 Build 0)  -->
<svg version="1.1" id="Capa_1" xmlns="http://www.w3.org/2000/svg" xmlns:xlink="http://www.w3.org/1999/xlink" x="0px" y="0px"
	 viewBox="0 0 512 512" style="enable-background:new 0 0 512 512;" xml:space="preserve">
<style type="text/css">
	.st0{fill:none;}
	.st1{fill:#C59969;}
	.st2{fill:#AA854B;}
	.st3{fill:#FDD835;}
	.st4{fill:#916E40;}
	.st5{fill:#FFFFFF;}
</style>
<title>cheesebread-logo</title>
<g>
	<path class="st0" d="M0,0h512v512H0V0z"/>
	<path class="st1" d="M341.8,420.5h129.5V213.3l-134.9-8.7L341.8,420.5z"/>
	<path class="st2" d="M512,154c0-34.4-28-62.5-62.5-62.5H320l16.4,121.8h134.9v-0.9C495.2,203.5,512,180.3,512,154z"/>
	<path class="st3" d="M362.7,117.3V192H320v202.7H192H53.3V192h-32v-74.7H192H362.7z"/>
	<path class="st4" d="M320,91.5H192H62.5C28,91.5,0,119.5,0,154c0,26.4,16.8,49.6,40.7,58.5v208H192v0h149.8v-208
		c23.9-9,40.7-32.2,40.7-58.5C382.5,119.5,354.5,91.5,320,91.5z M331.3,184.4l-19.5,7.3v198.8H192l0,0H70.7v0V191.7l-19.5-7.3
		C38.5,179.6,30,167.4,30,154c0-17.9,14.6-32.5,32.5-32.5H192h128c17.9,0,32.5,14.6,32.5,32.5C352.5,167.4,344,179.6,331.3,184.4z"
		/>
	<path class="st5" d="M158.8,267h-36.4v-36.4h36.4V267z"/>
	<path class="st5" d="M158.8,334.1h-36.4v-36.4h36.4V334.1z"/>
	<path class="st5" d="M246.1,222.9h-36.4v-36.4h36.4V222.9z"/>
</g>
</svg>
