<?xml version="1.0" encoding="utf-8"?>
<!-- Generator: Adobe Illustrator 21.0.0, SVG Export Plug-In . SVG Version: 6.00 Build 0)  -->
<svg version="1.1" id="Layer_1" xmlns="http://www.w3.org/2000/svg" xmlns:xlink="http://www.w3.org/1999/xlink" x="0px" y="0px"
	 viewBox="0 0 40 40" style="enable-background:new 0 0 40 40;" xml:space="preserve">
<style type="text/css">
	.st0{fill:none;}
	.st1{fill:#ECCE93;}
	.st2{fill:#E5BD76;}
	.st3{fill:#FFDA47;}
	.st4{fill:#C59969;}
	.st5{fill:#FFFFFF;}
	.st6{fill:#FCC515;}
</style>
<g>
	<path class="st0" d="M0,0h40v40H0V0z"/>
	<g>
		<path class="st1" d="M32.6,10l-2.5,27.7C30,39,28.9,40,27.6,40H12.4c-1.3,0-2.4-1-2.5-2.3L7.4,10H32.6z"/>
		<path class="st2" d="M32.6,10l-0.5,5H7.8l-0.5-5H32.6z"/>
		<path class="st3" d="M35,12.5H5v-5C5,6.1,6.1,5,7.5,5H8l2.5-5h19L32,5h0.5C33.9,5,35,6.1,35,7.5V12.5z"/>
		<path class="st4" d="M30.3,32.5H9.7c-1.3,0-2.4-1-2.5-2.3l-0.9-10c-0.1-1.5,1-2.7,2.5-2.7h22.3c1.5,0,2.6,1.3,2.5,2.7l-0.9,10
			C32.6,31.5,31.6,32.5,30.3,32.5z"/>
		<path class="st5" d="M13.8,23.8h2.5v2.5h-2.5V23.8z M18.8,23.8h2.5v2.5h-2.5V23.8z M23.8,23.8h2.5v2.5h-2.5V23.8z"/>
		<path class="st6" d="M5,10h30v2.5H5V10z"/>
	</g>
</g>
</svg>
