<svg height="496pt" viewBox="0 -73 496.16523 496" width="496pt" xmlns="http://www.w3.org/2000/svg"><path d="m481.765625.0820312-26.558594 13.2812498 14.238281 28.640625 26.71875-13.441406zm-55.199219 27.5195308-28.640625 14.402344 14.398438 28.640625 28.480469-14.402343zm-57.28125 28.640626-207.519531 103.839843 14.398437 28.480469 207.519532-103.679688zm0 0" fill="#b0b4b9"/><path d="m230.566406 125.683594-10.242187 40.800781-44.160157 22.078125-14.398437-28.480469zm0 0" fill="#9da2a5"/><path d="m161.941406 350.324219h-113.9375c-14.429687 0-27.964844-6.402344-37.117187-17.585938-9.152344-11.183593-12.785157-25.679687-9.9375-39.839843l23.648437-118.191407-20.128906-80.382812h201.007812l-20.113281 80.382812 23.648438 118.191407c2.847656 14.144531-.78125 28.671874-9.933594 39.839843s-22.703125 17.585938-37.136719 17.585938zm0 0" fill="#aa854b"/><path d="m205.460938 94.324219h-200.992188l20.015625 80h160.976563zm0 0" fill="#77959e"/><path d="m207.414062 284.960938c-1.824218 5.648437-4.480468 11.058593-8.351562 15.777343-9.152344 11.167969-22.6875 17.585938-37.121094 17.585938h-113.9375c-14.429687 0-27.964844-6.402344-37.117187-17.585938-3.875-4.734375-6.53125-10.128906-8.351563-15.777343l-1.585937 7.9375c-2.847657 14.160156.785156 28.671874 9.9375 39.839843 9.152343 11.167969 22.6875 17.585938 37.117187 17.585938h113.9375c14.433594 0 27.96875-6.402344 37.121094-17.585938 9.152344-11.183593 12.78125-25.679687 9.933594-39.839843zm0 0" fill="#916e40"/><g fill="#fff"><path d="m120.964844 222.324219h32v32h-32zm0 0"/><path d="m56.964844 222.324219h32v32h-32zm0 0"/></g></svg>