<?xml version="1.0" encoding="utf-8"?>
<!-- Generator: Adobe Illustrator 21.0.0, SVG Export Plug-In . SVG Version: 6.00 Build 0)  -->
<svg version="1.1" id="Layer_1" xmlns="http://www.w3.org/2000/svg" xmlns:xlink="http://www.w3.org/1999/xlink" x="0px" y="0px"
	 viewBox="0 0 40 40" style="enable-background:new 0 0 40 40;" xml:space="preserve">
<style type="text/css">
	.st0{fill:#B0B4B9;}
	.st1{fill:#57565C;}
	.st2{fill:#E4EDFB;}
	.st3{fill:#AA854B;}
	.st4{fill:#916E40;}
	.st5{fill:#D7E1F2;}
</style>
<g>
	<path class="st0" d="M38.8,20c-0.7,0-1.3-0.6-1.3-1.3v-10c0-2.1-1.7-3.8-3.8-3.8h-7.6V2.5h7.6c3.5,0,6.3,2.8,6.3,6.3v10
		C40,19.4,39.4,20,38.8,20z"/>
	<path class="st1" d="M26.6,12.5H8.4V6.9L3.8,4.4V0h22.9V12.5z"/>
	<path class="st2" d="M19.7,40h-4.5C7.2,40,0.6,33.9,0,26.2c0-0.4,0-0.8,0-1.2c0-6.1,3-11.6,8.1-14.8L8.4,10h18.2l0.3,0.2
		C32,13.4,35,18.9,35,25c0,0.4,0,0.8,0,1.2C34.4,33.9,27.8,40,19.7,40z"/>
	<path class="st3" d="M34.5,28.8h-0.8c-16.3,0-15-10-31.3-10H1.1C0.4,20.7,0,22.8,0,25c0,0.4,0,0.8,0,1.2C0.6,33.9,7.2,40,15.3,40
		h4.5C26.8,40,32.9,35.2,34.5,28.8L34.5,28.8z"/>
	<path class="st4" d="M34.2,28.8h-0.5c0,0-0.1,0-0.1,0c-2.4,5.2-7.7,8.8-13.9,8.8h-4.5c-7.9,0-14.6-5.9-15.2-13.6
		C0,24.3,0,24.6,0,25c0,0.4,0,0.8,0,1.2C0.6,33.9,7.2,40,15.3,40h4.5c7.1,0,13.2-4.8,14.8-11.3H34.2z"/>
	<path class="st5" d="M34.9,23.9c-0.1,1.7-0.6,3.3-1.3,4.8c0,0,0.1,0,0.1,0h0.8c0.1-0.4,0.2-0.8,0.3-1.3c0.1-0.4,0.1-0.9,0.2-1.3
		c0-0.4,0-0.8,0-1.2C35,24.6,35,24.3,34.9,23.9z"/>
</g>
</svg>
