<svg height="512pt" viewBox="-48 0 512 512" width="512pt" xmlns="http://www.w3.org/2000/svg"><path d="m96 256h160v96h-160zm0 0" fill="#77959e"/><path d="m324.0625 512h-296.125l43.871094-192h208.382812zm0 0" fill="#d7dee2"/><path d="m241.425781 512h-130.851562l16.449219-192h97.953124zm0 0" fill="#bfc9d1"/><path d="m296.878906 96h-241.757812v-29.3125l100.03125-66.6875h41.695312l100.03125 66.6875zm0 0" fill="#77959e"/><g fill="#57565c"><path d="m416 176h-32v-64h-80v-32h112zm0 0"/><path d="m384 208h32v32h-32zm0 0"/><path d="m384 272h32v32h-32zm0 0"/></g><path d="m280.671875 288h-209.34375l-22.367187-117.425781-48.960938-35.230469v-71.34375h323.328125zm0 0" fill="#d7dee2"/><path d="m225.183594 288h-98.367188l-16-224h130.367188zm0 0" fill="#bfc9d1"/><path d="m160 96h32v32h-32zm0 0" fill="#fff"/><path d="m160 160h32v32h-32zm0 0" fill="#fff"/></svg>