<svg height="512pt" viewBox="0 0 512 512" width="512pt" xmlns="http://www.w3.org/2000/svg"><path d="m32 128h448v368h-448zm0 0" fill="#d7dee2"/><path d="m32 128h448v64h-448zm0 0" fill="#bfc9d1"/><path d="m240 256h32v32h-32zm0 0" fill="#fff"/><path d="m160 128h192v64h-192zm0 0" fill="#787680"/><path d="m368 432h-32v-32h32c8.832031 0 16-7.167969 16-16s-7.167969-16-16-16h-32v-32h32c26.511719 0 48 21.488281 48 48s-21.488281 48-48 48zm0 0" fill="#e76e54"/><path d="m304 480h-96c-26.464844 0-48-21.535156-48-48v-112h192v112c0 26.464844-21.535156 48-48 48zm0 0" fill="#e76e54"/><path d="m304 448h-96c-26.464844 0-48-21.535156-48-48v32c0 26.464844 21.535156 48 48 48h96c26.464844 0 48-21.535156 48-48v-32c0 26.464844-21.535156 48-48 48zm0 0" fill="#dd523c"/><path d="m496 512h-480c-8.832031 0-16-7.167969-16-16s7.167969-16 16-16h480c8.832031 0 16 7.167969 16 16s-7.167969 16-16 16zm0 0" fill="#77959e"/><path d="m185.886719 288h-89.886719v-32h70.113281l27.566407-55.152344 28.640624 14.304688zm0 0" fill="#77959e"/><path d="m320 224h-128c-17.679688 0-32-14.320312-32-32v-64h192v64c0 17.679688-14.320312 32-32 32zm0 0" fill="#57565c"/><path d="m512 160h-512v-128c0-17.679688 14.320312-32 32-32h448c17.679688 0 32 14.320312 32 32zm0 0" fill="#d7dee2"/><path d="m64 64h32v32h-32zm0 0" fill="#fff"/><path d="m128 64h32v32h-32zm0 0" fill="#fff"/><path d="m432 96h-96c-8.832031 0-16-7.167969-16-16s7.167969-16 16-16h96c8.832031 0 16 7.167969 16 16s-7.167969 16-16 16zm0 0" fill="#48c8ef"/></svg>