<svg height="512pt" viewBox="0 0 512 512" width="512pt" xmlns="http://www.w3.org/2000/svg"><path d="m496 256c-8.832031 0-16-7.167969-16-16v-128c0-26.511719-21.488281-48-48-48h-97.503906v-32h97.503906c44.175781 0 80 35.824219 80 80v128c0 8.832031-7.167969 16-16 16zm0 0" fill="#b0b4b9"/><path d="m340.625 160h-233.25v-71.441406l-59.375-32v-56.558594h292.625zm0 0" fill="#57565c"/><path d="m252.71875 512h-57.453125c-102.609375 0-188.175781-77.726562-194.769531-176.976562-.320313-4.976563-.496094-9.984376-.496094-15.023438 0-77.921875 38.671875-148.769531 103.472656-189.535156l3.902344-2.464844h233.234375l3.902344 2.464844c64.816406 40.765625 103.488281 111.613281 103.488281 189.535156 0 5.039062-.175781 10.046875-.496094 15.023438-6.59375 99.25-92.160156 176.976562-194.785156 176.976562zm0 0" fill="#e4edfb"/><path d="m442.144531 368h-10.144531c-208 0-192-128-400-128h-17.457031c-9.375 25.070312-14.542969 52.046875-14.542969 80 0 5.039062.175781 10.046875.496094 15.023438 6.59375 99.25 92.160156 176.976562 194.785156 176.976562h57.453125c90.929687 0 168.371094-61.054688 189.441406-144zm0 0" fill="#aa854b"/><path d="m438.046875 368h-6.046875c-.496094 0-.945312-.03125-1.441406-.03125-30.65625 66.144531-99.085938 112.03125-177.839844 112.03125h-57.453125c-101.539063 0-186.242187-76.144531-194.402344-173.886719-.289062 4.640625-.863281 9.199219-.863281 13.886719 0 5.039062.175781 10.046875.496094 15.023438 6.59375 99.25 92.160156 176.976562 194.785156 176.976562h57.453125c90.914063 0 168.320313-61.070312 189.410156-144zm0 0" fill="#916e40"/><path d="m447.136719 306.160156c-1.839844 21.9375-7.710938 42.671875-16.578125 61.824219.496094-.015625.945312.015625 1.441406.015625h10.144531c1.34375-5.296875 2.496094-10.671875 3.390625-16.128906.878906-5.535156 1.601563-11.152344 1.96875-16.847656.320313-4.976563.496094-9.984376.496094-15.023438 0-4.671875-.574219-9.230469-.863281-13.839844zm0 0" fill="#d7e1f2"/></svg>