<svg height="512pt" viewBox="-64 0 512 512" width="512pt" xmlns="http://www.w3.org/2000/svg"><path d="m353.441406 128-32.242187 354.894531c-1.488281 16.480469-15.3125 29.105469-31.871094 29.105469h-194.65625c-16.542969 0-30.367187-12.625-31.871094-29.105469l-32.242187-354.894531zm0 0" fill="#ecce93"/><path d="m353.441406 128-5.761718 64h-311.359376l-5.761718-64zm0 0" fill="#e5bd76"/><path d="m384 160h-384v-64c0-17.679688 14.320312-32 32-32h6.113281l32-64h243.773438l32 64h6.113281c17.679688 0 32 14.320312 32 32zm0 0" fill="#ffda47"/><path d="m323.425781 416h-262.851562c-16.589844 0-30.445313-12.6875-31.871094-29.230469l-11.117187-128c-1.648438-18.691406 13.101562-34.769531 31.871093-34.769531h285.101563c18.769531 0 33.503906 16.078125 31.875 34.769531l-11.121094 128c-1.441406 16.542969-15.28125 29.230469-31.886719 29.230469zm0 0" fill="#c59969"/><g fill="#fff"><path d="m112 304h32v32h-32zm0 0"/><path d="m176 304h32v32h-32zm0 0"/><path d="m240 304h32v32h-32zm0 0"/></g><path d="m0 128h384v32h-384zm0 0" fill="#fcc515"/></svg>