<?xml version="1.0" encoding="utf-8"?>
<!-- Generator: Adobe Illustrator 21.0.0, SVG Export Plug-In . SVG Version: 6.00 Build 0)  -->
<svg version="1.1" id="Capa_1" xmlns="http://www.w3.org/2000/svg" xmlns:xlink="http://www.w3.org/1999/xlink" x="0px" y="0px"
	 viewBox="0 0 18 18" style="enable-background:new 0 0 18 18;" xml:space="preserve">
<path d="M2.8,5.5c1.2,0,2.2-0.8,2.6-1.9h11.8c0.5,0,0.9-0.4,0.9-0.9s-0.4-0.9-0.9-0.9H5.4C5,0.8,3.9,0,2.8,0C1.2,0,0,1.2,0,2.8
	S1.2,5.5,2.8,5.5z M2.8,1.8c0.6,0,1,0.4,1,1s-0.4,1-1,1c-0.6,0-1-0.4-1-1S2.2,1.8,2.8,1.8z M15.3,12.5c-1.2,0-2.2,0.8-2.6,1.9H0.9
	c-0.5,0-0.9,0.4-0.9,0.9c0,0.5,0.4,0.9,0.9,0.9h11.8c0.4,1.1,1.4,1.9,2.6,1.9c1.5,0,2.7-1.2,2.7-2.7C18,13.7,16.8,12.5,15.3,12.5z
	 M15.3,16.3c-0.6,0-1-0.4-1-1c0-0.6,0.4-1,1-1s1,0.4,1,1C16.3,15.8,15.8,16.3,15.3,16.3z M17.1,8.3h-5.4c-0.3-1.2-1.4-2-2.7-2
	s-2.3,0.8-2.7,2H0.9C0.4,8.3,0,8.7,0,9.2c0,0.5,0.4,0.9,0.9,0.9h5.5c0.4,1.1,1.4,1.9,2.7,1.9c1.2,0,2.3-0.8,2.7-1.9h5.4
	c0.5,0,0.9-0.4,0.9-0.9C18,8.7,17.6,8.3,17.1,8.3z M9.1,10.2C8.5,10.2,8,9.7,8,9.1s0.5-1.1,1.1-1.1c0.6,0,1.1,0.5,1.1,1.1
	S9.7,10.2,9.1,10.2z"/>
</svg>
