<svg height="512pt" viewBox="0 0 512 512" width="512pt" xmlns="http://www.w3.org/2000/svg"><path d="m256 512c-141.152344 0-256-114.847656-256-256 0-17.40625 1.761719-34.800781 5.230469-51.695312l2.625-12.785157h56.464843s-4.082031 32.480469 31.664063 32.480469c21.472656 0 33.617187-23.007812 33.726563-23.246094l10.050781-19.457031 15.535156 15.390625c4.625 4.527344 14.429687 11.3125 20.703125 11.3125 17.648438 0 32-11.921875 32-32 0-25.871094-44.976562-40-44.976562-40s44.976562-8 44.976562-40c0-9.183594-17.984375-32-17.984375-32l9.648437-10.703125c5.359376-5.984375 8.335938-13.535156 8.335938-21.296875 0-2.558594-.464844-5.375-1.472656-8.894531l-5.054688-17.648438c0 .015625 26.269532-5.457031 54.527344-5.457031 141.152344 0 256 114.847656 256 256s-114.847656 256-256 256zm0 0" fill="#c59969"/><path d="m288 128h32v32h-32zm0 0" fill="#fff"/><path d="m352 160h32v32h-32zm0 0" fill="#ba8a5a"/><path d="m384 224h32v32h-32zm0 0" fill="#fff"/><path d="m352 288h32v32h-32zm0 0" fill="#fff"/><path d="m352 352h32v32h-32zm0 0" fill="#ba8a5a"/><path d="m288 384h32v32h-32zm0 0" fill="#fff"/><path d="m224 416h32v32h-32zm0 0" fill="#ba8a5a"/><path d="m160 384h32v32h-32zm0 0" fill="#fff"/><path d="m96 320h32v32h-32zm0 0" fill="#fff"/><path d="m160 320h32v32h-32zm0 0" fill="#ba8a5a"/><path d="m224 352h32v32h-32zm0 0" fill="#fff"/><path d="m256 288h32v32h-32zm0 0" fill="#ba8a5a"/><path d="m288 224h32v32h-32zm0 0" fill="#fff"/><path d="m192 256h32v32h-32zm0 0" fill="#fff"/><path d="m256 480c-135.761719 0-246.878906-106.320312-255.183594-240.015625-.335937 5.328125-.816406 10.65625-.816406 16.015625 0 141.152344 114.847656 256 256 256s256-114.847656 256-256c0-5.40625-.480469-10.6875-.816406-16-8.320313 133.695312-119.421875 240-255.183594 240zm0 0" fill="#ba8a5a"/></svg>