<svg height="511pt" viewBox="0 -118 511.87789 511" width="511pt" xmlns="http://www.w3.org/2000/svg"><path d="m204.898438 224.359375h-60.480469c-8.480469 0-34.398438 12.160156-49.757813 24.320313-3.519531 2.878906-6.402344 5.597656-8.480468 8.160156-9.761719 12-23.839844 19.039062-38.722657 19.039062-4.957031 0-9.917969-.800781-14.71875-2.398437-14.878906-4.960938-26.398437-16.960938-30.71875-31.839844-4.480469-15.203125-1.441406-31.523437 8.480469-43.839844 4.800781-5.921875 9.597656-11.363281 14.71875-16.320312 13.121094-12.800781 27.679688-21.921875 43.839844-27.839844l6.878906-2.5625zm0 0" fill="#ecce93"/><path d="m509.859375 241.640625c-4.320313 14.878906-15.839844 26.878906-30.71875 31.839844-4.800781 1.597656-9.761719 2.398437-14.722656 2.398437-14.878907 0-28.960938-7.039062-38.71875-19.039062-2.082031-2.5625-4.960938-5.28125-8.480469-8.160156-15.359375-12.160157-41.28125-24.320313-49.761719-24.320313h-60.476562l128.957031-73.28125 6.882812 2.5625c16.160157 5.917969 30.71875 15.039063 43.839844 27.839844 5.117188 4.957031 9.917969 10.398437 14.71875 16.320312 9.921875 12.316407 12.960938 28.636719 8.480469 43.839844zm0 0" fill="#ecce93"/><path d="m204.898438 224.359375h-60.480469c-8.480469 0-34.398438 12.160156-49.757813 24.320313-31.519531-11.519532-56.800781-36.160157-69.441406-67.199219 13.121094-12.800781 27.679688-21.921875 43.839844-27.839844l6.878906-2.5625zm0 0" fill="#e5bd76"/><path d="m209.859375 224.359375h-73.441406c-48.480469 0-88-39.359375-88-88 0-44.160156 32.640625-80.800781 75.199219-86.878906 4.160156-.800781 8.480468-1.121094 12.800781-1.121094h53.921875zm0 0" fill="#ecce93"/><path d="m486.660156 181.480469c-12.640625 31.039062-37.921875 55.679687-69.441406 67.199219-15.359375-12.160157-41.28125-24.320313-49.761719-24.320313h-60.476562l128.957031-73.28125 6.882812 2.5625c16.160157 5.917969 30.71875 15.039063 43.839844 27.839844zm0 0" fill="#e5bd76"/><path d="m463.457031 136.359375c0 48.640625-39.519531 88-88 88h-73.4375l19.519531-176h53.917969c4.320313 0 8.640625.320313 12.800781 1.121094 42.5625 6.078125 75.199219 42.71875 75.199219 86.878906zm0 0" fill="#ecce93"/><path d="m190.339844 48.359375 19.519531 176h-30.273437c-24.175782 0-46.144532-16.335937-50.925782-40.046875-.035156-.144531-.066406-.289062-.082031-.433594l-12.160156-60c-5.117188-25.441406 15.679687-75.519531 20-75.519531zm0 0" fill="#e5bd76"/><path d="m395.457031 123.878906-12.15625 60c-.035156.144532-.066406.289063-.082031.433594-4.769531 23.695312-26.75 40.046875-50.929688 40.046875h-30.269531l19.519531-176h53.917969c4.320313 0 25.121094 50.078125 20 75.519531zm0 0" fill="#e5bd76"/><path d="m255.9375 256.4375c-46.542969 0-86.941406-33.117188-96.0625-78.765625l-12.015625-60.050781c-5.777344-28.894532 1.632813-58.542969 20.320313-81.34375 18.671874-22.78125 46.269531-35.839844 75.742187-35.839844h24.03125c29.472656 0 57.074219 13.058594 75.746094 35.839844 18.6875 22.800781 26.097656 52.433594 20.320312 81.34375l-12.015625 60.050781c-9.121094 45.648437-49.519531 78.765625-96.066406 78.765625zm0 0" fill="#c59969"/><path d="m239.9375 42.117188h32v32h-32zm0 0" fill="#fff"/><path d="m239.9375 106.117188h32v32h-32zm0 0" fill="#fff"/><path d="m255.9375 218.328125c-42.527344 0-80.351562-23.953125-99.902344-59.875l3.839844 19.21875c9.136719 45.648437 49.519531 78.765625 96.0625 78.765625 46.546875 0 86.945312-33.117188 96.066406-78.765625l3.839844-19.21875c-19.535156 35.921875-57.359375 59.875-99.90625 59.875zm0 0" fill="#ba8a5a"/></svg>