<svg height="512pt" viewBox="0 0 512 512" width="512pt" xmlns="http://www.w3.org/2000/svg"><path d="m400.59375 511.328125h-289.1875l-52.351562-192h393.890624zm0 0" fill="#48c8ef"/><path d="m59.054688 319.328125 52.351562 192h64.449219l-26.191407-192zm0 0" fill="#e4edfb"/><path d="m256 319.328125v192h80.144531l26.191407-192zm0 0" fill="#e4edfb"/><path d="m442.238281 35.007812-20.476562 24.640626c-.320313-.320313-40.480469-32.960938-81.441407-26.878907-3.199218.480469-6.398437 1.28125-9.601562 2.238281-17.117188 5.28125-32.480469 17.761719-45.4375 37.121094l-26.5625-17.601562c12.800781-19.359375 27.839844-33.597656 44.640625-42.71875 10.082031-5.441406 20.960937-8.960938 32.480469-10.71875 55.359375-8.160156 104.320312 32.160156 106.398437 33.917968zm0 0" fill="#c59969"/><path d="m512 303.328125c0 26.402344-21.601562 48-48 48h-416c-26.398438 0-48-21.597656-48-48 0-26.398437 21.601562-48 48-48h17.601562c6.398438-31.679687 31.839844-56.640625 63.679688-62.71875 4.480469-23.839844 19.679688-44.160156 40.320312-55.359375 11.359376-6.402344 24.476563-9.921875 38.398438-9.921875h96c13.921875 0 27.039062 3.519531 38.398438 9.921875 20.320312 11.199219 35.203124 30.71875 40 54.078125.160156.480469.160156.800781.320312 1.28125 20 3.839844 37.441406 15.039063 49.28125 30.71875 6.878906 9.28125 12 20.160156 14.398438 32h17.601562c20.800781 0 38.558594 13.441406 45.121094 32 1.917968 4.960937 2.878906 10.402344 2.878906 16zm0 0" fill="#9b7cab"/><path d="m432 223.328125h-96c-8.832031 0-16-7.167969-16-16s7.167969-16 16-16h46.398438c.160156.480469.160156.800781.320312 1.28125 20 3.839844 37.441406 15.039063 49.28125 30.71875zm0 0" fill="#88679b"/><path d="m109.441406 255.328125h32v32h-32zm0 0" fill="#fff"/><path d="m509.121094 287.328125h-317.121094c-8.832031 0-16-7.167969-16-16s7.167969-16 16-16h272c20.800781 0 38.558594 13.441406 45.121094 32zm0 0" fill="#88679b"/><path d="m342.398438 137.25c-15.679688 32-48.476563 54.078125-86.398438 54.078125s-70.71875-22.078125-86.398438-54.078125c11.359376-6.402344 24.476563-9.921875 38.398438-9.921875h96c13.921875 0 27.039062 3.519531 38.398438 9.921875zm0 0" fill="#88679b"/><path d="m285.28125 72.128906-26.5625-17.601562c12.800781-19.359375 27.839844-33.597656 44.640625-42.71875 10.5625 6.082031 19.839844 13.921875 27.359375 23.199218-17.117188 5.28125-32.480469 17.761719-45.4375 37.121094zm0 0" fill="#ba8a5a"/><path d="m320 95.328125c0 35.347656-28.652344 64-64 64s-64-28.652344-64-64c0-35.34375 28.652344-64 64-64s64 28.65625 64 64zm0 0" fill="#ff668b"/><path d="m256 127.328125c-29.726562 0-54.574219-20.464844-61.726562-48-1.34375 5.152344-2.273438 10.449219-2.273438 16 0 35.296875 28.703125 64 64 64s64-28.703125 64-64c0-5.550781-.929688-10.847656-2.273438-16-7.152343 27.535156-32 48-61.726562 48zm0 0" fill="#f7487a"/><path d="m509.070312 287.21875c-6.621093 18.605469-24.253906 32.109375-45.070312 32.109375h-416c-20.769531 0-38.382812-13.4375-45.039062-32-1.792969 5.039063-2.960938 10.367187-2.960938 16 0 26.402344 21.601562 48 48 48h416c26.398438 0 48-21.597656 48-48 0-5.597656-.960938-11.039063-2.878906-16-.015625-.03125-.03125-.078125-.050782-.109375zm0 0" fill="#88679b"/></svg>