<?xml version="1.0" encoding="utf-8"?>
<!-- Generator: Adobe Illustrator 21.0.0, SVG Export Plug-In . SVG Version: 6.00 Build 0)  -->
<svg version="1.1" id="Layer_1" xmlns="http://www.w3.org/2000/svg" xmlns:xlink="http://www.w3.org/1999/xlink" x="0px" y="0px"
	 viewBox="0 0 28 28" style="enable-background:new 0 0 28 28;" xml:space="preserve">
<style type="text/css">
	.st0{fill:none;}
</style>
<g>
	<path class="st0" d="M0,0h28v28H0V0z"/>
	<path d="M6.2,0C4.5,0.1,3.4,1.3,2.9,1.7c0.1,0.4,0.8,2,2.5,2.5c1.7,0.7,3.9,0.4,6.6-1C10.1,1,8.1,0,6.2,0z M13,8.4l-0.6-0.3
		C9,6.3,4.6,7.6,2.7,10.9c-1.5,2.2,0,7.4,2.1,11.5C6.6,25.5,8.7,28,9.7,28c1.7,0,2.2-0.4,2.8-0.8c0.4-0.3,0.8-0.6,1.5-0.6
		c0.7,0,1.1,0.3,1.5,0.6c0.6,0.4,1.3,0.8,2.8,0.8c1.1,0,3.2-2.5,4.9-5.7c2.1-4.1,3.6-9.1,2.1-11.3l0,0c-2-3.4-6.3-4.6-9.8-2.8
		l-0.3,0.3V0.7H13V8.4z M23.7,15.8c-1,3.6-2.8,7.1-5.3,9.9h0h-0.1c-0.4,0-0.8-0.1-1.1-0.4c-1.7-1.4-4.1-1.4-5.7,0
		c-0.3,0.3-0.7,0.4-1.1,0.4H9.9v-0.1c-2.5-2.8-4.3-6.3-5.3-9.9c-0.4-1.1-0.4-2.4-0.1-3.5c1-1.7,2.7-2.8,4.5-2.8
		c0.8,0,1.8,0.3,2.5,0.6l1.3,0.7h2.8l1.3-0.7c0.8-0.4,1.7-0.6,2.5-0.6c1.8,0,3.6,1.1,4.5,2.7C24.1,13.3,24.1,14.6,23.7,15.8z"/>
</g>
</svg>
