<svg height="510pt" viewBox="-92 0 510 510.88" width="510pt" xmlns="http://www.w3.org/2000/svg"><path d="m326.359375 29.761719-72.640625 28.957031-93.917969 344.320312-30.722656-8.320312 98.082031-359.679688 87.359375-35.039062zm0 0" fill="#ff668b"/><path d="m242.679688 99.199219-55.519532 203.679687h-32.960937l58.878906-216c10.402344 3.199219 20.160156 7.359375 29.601563 12.320313zm0 0" fill="#f7487a"/><path d="m290.679688 238.878906-36.160157 272h-188.160156l-36.160156-272zm0 0" fill="#ecce93"/><path d="m290.679688 238.878906-8.480469 64h-243.519531l-8.480469-64zm0 0" fill="#e5bd76"/><path d="m159.878906 403.089844 44.785156-164.210938h-33.167968l-42.496094 155.792969zm0 0" fill="#e5bd76"/><g fill="#e4edfb"><path d="m96.441406 302.878906h32v32h-32zm0 0"/><path d="m176.441406 414.878906h32v32h-32zm0 0"/><path d="m112.441406 430.878906h32v32h-32zm0 0"/></g><path d="m62.152344 478.878906 4.273437 32h188.03125l4.269531-32zm0 0" fill="#e5bd76"/><path d="m303.496094 238.878906c-7.984375-71.886718-69.054688-128-143.054688-128s-135.074218 56.113282-143.058594 128h-16.941406v32h320v-32zm0 0" fill="#e4edfb"/><path d="m128.441406 142.878906h32v32h-32zm0 0" fill="#fff"/><path d="m213.382812 206.878906 20.625-75.632812c-9.230468-5.519532-19.136718-9.980469-29.535156-13.34375l-24.257812 88.976562zm0 0" fill="#d7e1f2"/><path d="m303.480469 238.878906h-286.082031c1.28125-11.039062 3.679687-21.917968 7.523437-32h271.039063c3.839843 10.082032 6.238281 20.960938 7.519531 32zm0 0" fill="#d7e1f2"/><path d="m64.441406 174.878906h32v32h-32zm0 0" fill="#fff"/></svg>