<svg height="512pt" viewBox="-78 0 512 512" width="512pt" xmlns="http://www.w3.org/2000/svg"><path d="m210.097656 0h64v256h-64zm0 0" fill="#e5bd76"/><path d="m258.097656 48h64v192h-64zm0 0" fill="#ecce93"/><path d="m34.097656 0h64v256h-64zm0 0" fill="#e5bd76"/><path d="m114.097656 32h64v224h-64zm0 0" fill="#e5bd76"/><path d="m66.097656 64h64v192h-64zm0 0" fill="#ecce93"/><path d="m162.097656 96h64v192h-64zm0 0" fill="#ecce93"/><path d="m288.382812 512h-220.574218c-16.160156 0-29.777344-12.046875-31.761719-28.078125l-36.046875-291.921875h95.34375l35.566406 32h94.371094l35.566406-32h95.34375l-36.046875 291.921875c-1.984375 16.03125-15.601562 28.078125-31.761719 28.078125zm0 0" fill="#e76e54"/><g fill="#fff"><path d="m98.097656 320h32v32h-32zm0 0"/><path d="m162.097656 320h32v32h-32zm0 0"/><path d="m226.097656 320h32v32h-32zm0 0"/></g></svg>