<svg height="512pt" viewBox="0 0 512 512.00002" width="512pt" xmlns="http://www.w3.org/2000/svg"><path d="m512 240v160c0 26.398438-21.601562 48-48 48h-96v-32h96c8.800781 0 16-7.199219 16-16v-160c0-8.800781-7.199219-16-16-16h-96v-32h96c26.398438 0 48 21.601562 48 48zm0 0" fill="#57565c"/><path d="m368 192h48v32h-48zm0 0" fill="#2d2d30"/><path d="m368 416h48v32h-48zm0 0" fill="#2d2d30"/><path d="m64 267.039062h320v244.960938h-320zm0 0" fill="#c59969"/><path d="m368 368h16v-224c0-26.464844-21.535156-48-48-48h-224c-26.464844 0-48 21.535156-48 48v16h-64v73.695312l64 33.328126v36.976562h16c144 0 144 64 288 64zm0 0" fill="#e4edfb"/><path d="m240 416v-320h-32v320h-80v32h192v-32zm0 0" fill="#ba8a5a"/><path d="m272 0v32h-32v80h-32v-80h-32v-32zm0 0" fill="#57565c"/><g fill="#fff"><path d="m288 224h32v32h-32zm0 0"/><path d="m288 288h32v32h-32zm0 0"/><path d="m96 336h32v32h-32zm0 0"/><path d="m336 400h32v32h-32zm0 0"/><path d="m128 224h32v32h-32zm0 0"/></g><path d="m240 342.976562v-246.976562h-32v233.023438c10.785156 4.59375 21.214844 9.359374 32 13.953124zm0 0" fill="#d7e1f2"/><path d="m64 480h320v32h-320zm0 0" fill="#ba8a5a"/><path d="m208 64h32v48h-32zm0 0" fill="#2d2d30"/><path d="m384 144c0-26.464844-21.535156-48-48-48h-224c-26.464844 0-48 21.535156-48 48v16h320zm0 0" fill="#77959e"/></svg>