<svg height="512pt" viewBox="0 -64 512 512" width="512pt" xmlns="http://www.w3.org/2000/svg"><path d="m352 160h160v64h-160zm0 0" fill="#57565c"/><path d="m416 192c0 10.992188-1.761719 21.648438-5.121094 32h-58.878906v-64h58.878906c3.359375 10.351562 5.121094 21.007812 5.121094 32zm0 0" fill="#2d2d30"/><path d="m384 192c0 106.039062-85.960938 192-192 192s-192-85.960938-192-192 85.960938-192 192-192 192 85.960938 192 192zm0 0" fill="#77959e"/><path d="m192 352c-26.625 0-41.839844-23.007812-54.046875-41.488281-4.832031-7.3125-9.410156-14.222657-13.824219-18.640625-4.417968-4.398438-11.328125-8.976563-18.625-13.808594-18.496094-12.222656-41.503906-27.4375-41.503906-54.0625s23.007812-41.839844 41.488281-54.0625c7.3125-4.847656 14.207031-9.410156 18.625-13.808594 4.429688-4.433594 8.992188-11.328125 13.839844-18.640625 12.207031-18.480469 27.421875-41.488281 54.046875-41.488281s41.839844 23.007812 54.046875 41.488281c4.832031 7.3125 9.410156 14.222657 13.824219 18.640625 4.417968 4.398438 11.328125 8.976563 18.625 13.808594 18.496094 12.222656 41.503906 27.4375 41.503906 54.0625s-23.007812 41.839844-41.488281 54.0625c-7.3125 4.847656-14.207031 9.410156-18.625 13.808594-4.414063 4.417968-8.992188 11.328125-13.824219 18.640625-12.222656 18.496093-27.4375 41.488281-54.0625 41.488281zm0 0" fill="#62808c"/><path d="m192 320c-26.625 0-41.839844-23.007812-54.046875-41.488281-4.832031-7.3125-9.410156-14.222657-13.824219-18.640625-4.417968-4.398438-11.328125-8.976563-18.625-13.808594-18.496094-12.222656-41.503906-27.4375-41.503906-54.0625s23.007812-41.839844 41.488281-54.0625c7.3125-4.847656 14.207031-9.410156 18.625-13.808594 4.429688-4.433594 8.992188-11.328125 13.839844-18.640625 12.207031-18.480469 27.421875-41.488281 54.046875-41.488281s41.839844 23.007812 54.046875 41.488281c4.832031 7.3125 9.410156 14.222657 13.824219 18.640625 4.417968 4.398438 11.328125 8.976563 18.625 13.808594 18.496094 12.222656 41.503906 27.4375 41.503906 54.0625s-23.007812 41.839844-41.488281 54.0625c-7.3125 4.847656-14.207031 9.410156-18.625 13.808594-4.414063 4.417968-8.992188 11.328125-13.824219 18.640625-12.222656 18.496093-27.4375 41.488281-54.0625 41.488281zm0 0" fill="#ffda47"/><path d="m176 176h32v32h-32zm0 0" fill="#fff"/><path d="m278.511719 214.0625c-7.3125 4.847656-14.207031 9.410156-18.625 13.808594-4.414063 4.417968-8.992188 11.328125-13.824219 18.640625-12.222656 18.496093-27.4375 41.488281-54.0625 41.488281s-41.839844-23.007812-54.046875-41.488281c-4.832031-7.3125-9.410156-14.222657-13.824219-18.640625-4.417968-4.398438-11.328125-8.976563-18.625-13.808594-14.414062-9.519531-31.40625-20.941406-38.289062-38.0625-1.949219 4.863281-3.214844 10.113281-3.214844 16 0 26.625 23.007812 41.839844 41.488281 54.0625 7.3125 4.847656 14.207031 9.410156 18.625 13.808594 4.414063 4.417968 8.992188 11.328125 13.824219 18.640625 12.222656 18.496093 27.4375 41.488281 54.0625 41.488281s41.839844-23.007812 54.046875-41.488281c4.832031-7.3125 9.410156-14.222657 13.824219-18.640625 4.417968-4.398438 11.328125-8.976563 18.625-13.808594 18.496094-12.222656 41.503906-27.4375 41.503906-54.0625 0-5.886719-1.265625-11.136719-3.214844-16-6.882812 17.121094-23.875 28.542969-38.273437 38.0625zm0 0" fill="#fcc515"/><path d="m192 32c-100.464844 0-183.007812 77.601562-191.183594 176-.449218-5.296875-.816406-10.59375-.816406-16 0-105.871094 86.128906-192 192-192s192 86.128906 192 192c0 5.40625-.367188 10.703125-.816406 16-8.175782-98.398438-90.71875-176-191.183594-176zm0 0" fill="#62808c"/></svg>