<svg height="512pt" viewBox="0 0 512.06134 512" width="512pt" xmlns="http://www.w3.org/2000/svg"><path d="m144.015625 512.03125c-9.601563 0-19.347656-.960938-28.960937-2.847656-56.066407-11.023438-101.152344-56.113282-112.175782-112.191406-6.753906-34.320313-1.570312-68.289063 14.976563-98.273438 9.839843-17.839844 14.636719-35.96875 14.238281-53.886719l-.0625-4.800781c0-132.335938 107.664062-240 240-240 9.023438 0 18.191406.496094 27.261719 1.503906 110.226562 12.191406 199.058593 101.023438 211.234375 211.246094 7.664062 69.28125-13.539063 135.808594-59.664063 187.3125-45.503906 50.800781-110.691406 79.9375-178.832031 79.9375l-6.914062-.082031c-17.230469 0-34.65625 4.800781-51.808594 14.273437-21.117188 11.648438-45.085938 17.808594-69.292969 17.808594zm0 0" fill="#e4edfb"/><path d="m144.015625 448.03125c-5.457031 0-11.042969-.542969-16.609375-1.648438-30.367188-5.96875-55.761719-31.375-61.726562-61.746093l31.390624-6.191407c3.488282 17.699219 18.832032 33.058594 36.511719 36.53125 12 2.335938 23.359375.703126 33.359375-4.832031l15.457032 28.03125c-11.855469 6.542969-24.769532 9.855469-38.382813 9.855469zm0 0" fill="#d7e1f2"/><path d="m384.03125 240.03125c0 61.855469-50.144531 112-112 112s-112-50.144531-112-112 50.144531-112 112-112 112 50.144531 112 112zm0 0" fill="#ffda47"/><path d="m450.863281 368.09375c-45.503906 50.800781-110.691406 79.9375-178.832031 79.9375l-6.914062-.082031c-17.230469 0-34.65625 4.800781-51.808594 14.273437-21.117188 11.648438-45.085938 17.808594-69.292969 17.808594-9.601563 0-19.347656-.960938-28.960937-2.847656-56.066407-11.023438-101.152344-56.113282-112.175782-112.191406-.816406-4.175782-1.457031-8.335938-1.921875-12.496094-1.566406 14.574218-1.0234372 29.488281 1.921875 44.496094 11.023438 56.078124 56.109375 101.152343 112.175782 112.191406 9.613281 1.886718 19.359374 2.847656 28.960937 2.847656 24.207031 0 48.175781-6.160156 69.292969-17.808594 17.152344-9.472656 34.578125-14.273437 51.808594-14.273437l6.914062.082031c68.140625 0 133.328125-29.136719 178.832031-79.9375 43.421875-48.480469 64.414063-110.335938 60.367188-175.230469-3.570313 53.039063-24.144531 102.785157-60.367188 143.230469zm0 0" fill="#d7e1f2"/><path d="m272.03125 320.03125c-56.304688 0-102.914062-41.824219-110.722656-96-.75 5.246094-1.277344 10.558594-1.277344 16 0 61.742188 50.238281 112 112 112 61.757812 0 112-50.257812 112-112 0-5.441406-.53125-10.753906-1.28125-16-7.808594 54.175781-54.417969 96-110.71875 96zm0 0" fill="#fcc515"/><path d="m240.03125 168.03125h32v32h-32zm0 0" fill="#fff"/></svg>