<?xml version="1.0" encoding="utf-8"?>
<!-- Generator: Adobe Illustrator 21.0.0, SVG Export Plug-In . SVG Version: 6.00 Build 0)  -->
<svg version="1.1" id="Layer_1" xmlns="http://www.w3.org/2000/svg" xmlns:xlink="http://www.w3.org/1999/xlink" x="0px" y="0px"
	 viewBox="0 0 40 40" style="enable-background:new 0 0 40 40;" xml:space="preserve">
<style type="text/css">
	.st0{fill:none;}
	.st1{fill:#57565C;}
	.st2{fill:#2D2D30;}
	.st3{fill:#77959E;}
	.st4{fill:#62808C;}
	.st5{fill:#FFDA47;}
	.st6{fill:#FFFFFF;}
	.st7{fill:#FCC515;}
</style>
<g>
	<path class="st0" d="M0,0h40v40H0V0z"/>
	<g>
		<path class="st1" d="M27.5,17.5H40v5H27.5V17.5z"/>
		<path class="st2" d="M32.5,20c0,0.9-0.1,1.7-0.4,2.5h-4.6v-5h4.6C32.4,18.3,32.5,19.1,32.5,20z"/>
		<path class="st3" d="M30,20c0,8.3-6.7,15-15,15S0,28.3,0,20S6.7,5,15,5S30,11.7,30,20z"/>
		<path class="st4" d="M15,32.5c-2.1,0-3.3-1.8-4.2-3.2c-0.4-0.6-0.7-1.1-1.1-1.5c-0.3-0.3-0.9-0.7-1.5-1.1c-1.4-1-3.2-2.1-3.2-4.2
			s1.8-3.3,3.2-4.2c0.6-0.4,1.1-0.7,1.5-1.1c0.3-0.3,0.7-0.9,1.1-1.5c1-1.4,2.1-3.2,4.2-3.2s3.3,1.8,4.2,3.2
			c0.4,0.6,0.7,1.1,1.1,1.5c0.3,0.3,0.9,0.7,1.5,1.1c1.4,1,3.2,2.1,3.2,4.2s-1.8,3.3-3.2,4.2c-0.6,0.4-1.1,0.7-1.5,1.1
			c-0.3,0.3-0.7,0.9-1.1,1.5C18.3,30.7,17.1,32.5,15,32.5z"/>
		<path class="st5" d="M15,30c-2.1,0-3.3-1.8-4.2-3.2c-0.4-0.6-0.7-1.1-1.1-1.5c-0.3-0.3-0.9-0.7-1.5-1.1C6.8,23.3,5,22.1,5,20
			s1.8-3.3,3.2-4.2c0.6-0.4,1.1-0.7,1.5-1.1c0.3-0.3,0.7-0.9,1.1-1.5c1-1.4,2.1-3.2,4.2-3.2s3.3,1.8,4.2,3.2
			c0.4,0.6,0.7,1.1,1.1,1.5c0.3,0.3,0.9,0.7,1.5,1.1c1.4,1,3.2,2.1,3.2,4.2s-1.8,3.3-3.2,4.2c-0.6,0.4-1.1,0.7-1.5,1.1
			c-0.3,0.3-0.7,0.9-1.1,1.5C18.3,28.2,17.1,30,15,30z"/>
		<path class="st6" d="M13.8,18.8h2.5v2.5h-2.5V18.8z"/>
		<path class="st7" d="M21.8,21.7c-0.6,0.4-1.1,0.7-1.5,1.1c-0.3,0.3-0.7,0.9-1.1,1.5c-1,1.4-2.1,3.2-4.2,3.2s-3.3-1.8-4.2-3.2
			c-0.4-0.6-0.7-1.1-1.1-1.5c-0.3-0.3-0.9-0.7-1.5-1.1c-1.1-0.7-2.5-1.6-3-3C5.1,19.1,5,19.5,5,20c0,2.1,1.8,3.3,3.2,4.2
			c0.6,0.4,1.1,0.7,1.5,1.1c0.3,0.3,0.7,0.9,1.1,1.5c1,1.4,2.1,3.2,4.2,3.2s3.3-1.8,4.2-3.2c0.4-0.6,0.7-1.1,1.1-1.5
			c0.3-0.3,0.9-0.7,1.5-1.1c1.4-1,3.2-2.1,3.2-4.2c0-0.5-0.1-0.9-0.3-1.3C24.2,20.1,22.9,21,21.8,21.7z"/>
		<path class="st4" d="M15,7.5c-7.8,0-14.3,6.1-14.9,13.8C0,20.8,0,20.4,0,20C0,11.7,6.7,5,15,5s15,6.7,15,15c0,0.4,0,0.8-0.1,1.3
			C29.3,13.6,22.8,7.5,15,7.5z"/>
	</g>
</g>
</svg>
