<svg height="512pt" viewBox="1 0 511 512" width="512pt" xmlns="http://www.w3.org/2000/svg"><path d="m320.5 512h-288c-17.679688 0-32-14.320312-32-32v-96c0-29.761719 20.414062-54.863281 48-61.96875v-34.03125h256v34.03125c27.585938 7.105469 48 32.207031 48 61.96875v96c0 17.679688-14.320312 32-32 32zm0 0" fill="#e4edfb"/><path d="m.5 384v96c0 17.679688 14.320312 32 32 32h288c17.679688 0 32-14.320312 32-32v-96zm0 0" fill="#ffda47"/><path d="m190.261719 48h322.238281v32h-322.238281zm0 0" fill="#ecce93"/><path d="m270.261719 80c-4.320313 16.640625-15.203125 30.878906-29.761719 39.199219-9.441406 5.601562-20.320312 8.800781-32 8.800781h-64c-11.679688 0-22.558594-3.199219-32-8.640625-19.199219-11.039063-32-31.679687-32-55.359375s12.800781-44.320312 32-55.359375c9.441406-5.441406 20.320312-8.640625 32-8.640625h64c11.679688 0 22.558594 3.199219 32 8.800781 14.558594 8.320313 25.441406 22.558594 29.761719 39.199219zm0 0" fill="#aa854b"/><g fill="#ffda47"><path d="m160.5 176c-8.832031 0-16-7.167969-16-16v-160h32v160c0 8.832031-7.167969 16-16 16zm0 0"/><path d="m240.5 8.800781v215.199219c0 8.832031-7.167969 16-16 16s-16-7.167969-16-16v-224c11.679688 0 22.558594 3.199219 32 8.800781zm0 0"/><path d="m144.5 208h32v32h-32zm0 0"/><path d="m112.5 8.640625v183.359375c0 8.832031-7.167969 16-16 16s-16-7.167969-16-16v-128c0-23.679688 12.800781-44.320312 32-55.359375zm0 0"/></g><path d="m32.5 416h32v32h-32zm0 0" fill="#fff"/><path d="m96.5 416h32v32h-32zm0 0" fill="#fff"/><path d="m48.5 288h256v34.03125h-256zm0 0" fill="#d7e1f2"/><path d="m16.5 272h320v32h-320zm0 0" fill="#e4edfb"/><path d="m320.5 480h-288c-17.679688 0-32-14.320312-32-32v32c0 17.679688 14.320312 32 32 32h288c17.679688 0 32-14.320312 32-32v-32c0 17.679688-14.320312 32-32 32zm0 0" fill="#fcc515"/></svg>