<?xml version="1.0" encoding="utf-8"?>
<!-- Generator: Adobe Illustrator 21.0.0, SVG Export Plug-In . SVG Version: 6.00 Build 0)  -->
<svg version="1.1" id="Layer_1" xmlns="http://www.w3.org/2000/svg" xmlns:xlink="http://www.w3.org/1999/xlink" x="0px" y="0px"
	 viewBox="0 0 40 40" style="enable-background:new 0 0 40 40;" xml:space="preserve">
<style type="text/css">
	.st0{fill:none;}
	.st1{fill:#FDD835;}
	.st2{fill:#FBC02D;}
	.st3{fill:#FFFFFF;}
	.st4{fill:#A9B1B5;}
	.st5{fill:#BFC9D1;}
	.st6{fill:#D7DEE2;}
	.st7{fill:#EF4B03;}
</style>
<g>
	<path class="st0" d="M0,0h40v40H0V0z"/>
	<g>
		<path class="st1" d="M17.9,40c-0.8,0-1.5-0.3-2.1-0.9c-1.1-1.1-1.1-3,0-4.1c-1.5-3.6-0.5-8.2,2.8-11.5c3.2-3.2,7.9-4.3,11.5-2.8
			c1.1-1.1,3-1.1,4.1,0c1.1,1.1,1.1,3,0,4.1c1.5,3.6,0.5,8.2-2.8,11.5c-3.2,3.2-7.9,4.3-11.5,2.8C19.4,39.7,18.7,40,17.9,40z"/>
		<path class="st2" d="M18.7,33.8H20V35h-1.3V33.8z M26.3,28.7h1.3V30h-1.3V28.7z M30,27.5h1.3v1.3H30V27.5z"/>
		<path class="st3" d="M20.6,25.8l-0.9-0.9c1.5-1.5,3.4-2.4,5.3-2.6l0.1,1.2C23.5,23.7,21.9,24.5,20.6,25.8z M27.2,23.9
			c-0.3-0.1-0.7-0.2-1-0.3l0.2-1.2c0.5,0.1,0.9,0.2,1.3,0.4L27.2,23.9z M22.5,30h1.3v1.3h-1.3V30z M28.8,31.2H30v1.3h-1.3V31.2z"/>
		<path class="st2" d="M18.7,28.7H20V30h-1.3V28.7z M25,33.8h1.3V35H25V33.8z M22.5,35h1.3v1.3h-1.3V35z M31.4,35.2
			c-3.2,3.2-7.9,4.3-11.5,2.8c-0.6,0.5-1.3,0.8-2,0.8c-0.8,0-1.5-0.3-2.1-0.9c-0.4-0.4-0.7-0.9-0.8-1.4c-0.2,0.9,0.1,2,0.8,2.7
			c0.6,0.6,1.3,0.9,2.1,0.9c0.7,0,1.5-0.3,2-0.8c3.6,1.6,8.2,0.5,11.5-2.8c2.4-2.4,3.6-5.6,3.4-8.6C34.7,30.4,33.5,33.1,31.4,35.2z
			 M24,26.1h1.3v1.3H24V26.1z"/>
	</g>
	<g>
		<path class="st4" d="M5,8.8h16.3V40H5V8.8z"/>
		<path class="st5" d="M5,8.8h8V40H5V8.8z"/>
		<path class="st6" d="M6.7,8.8h12.9v27.1H6.7V8.8z"/>
		<path class="st1" d="M6.7,16.1h12.9v19.8H6.7V16.1z"/>
		<g>
			<path class="st3" d="M13.8,16.1h-2V4c0-2.3,1.9-4,4.4-4h7.6v2h-7.6C15,2,13.8,2.7,13.8,4C13.8,4,13.8,16.1,13.8,16.1z"/>
			<path class="st7" d="M13.8,16.1h-2v-2.9h2V16.1z M13.8,10.7h-2V7.8h2V10.7z M13.8,5.4h-2V4c0-0.7,0.2-1.3,0.5-1.9l1.7,1
				c-0.2,0.3-0.2,0.6-0.2,1L13.8,5.4L13.8,5.4z M15.4,2.1l-0.5-1.9C15.3,0.1,15.7,0,16.2,0h1.7v2h-1.7C15.9,2,15.6,2,15.4,2.1z
				 M23.3,2h-2.9V0h2.9V2z"/>
		</g>
		<path class="st3" d="M16.2,22.7h1.7v1.7h-1.7V22.7z M16.2,19.4h1.7v1.7h-1.7V19.4z M16.2,26h1.7v1.7h-1.7V26z"/>
	</g>
</g>
</svg>
