<?xml version="1.0" encoding="utf-8"?>
<!-- Generator: Adobe Illustrator 21.0.0, SVG Export Plug-In . SVG Version: 6.00 Build 0)  -->
<svg version="1.1" id="Layer_1" xmlns="http://www.w3.org/2000/svg" xmlns:xlink="http://www.w3.org/1999/xlink" x="0px" y="0px"
	 viewBox="0 0 40 40" style="enable-background:new 0 0 40 40;" xml:space="preserve">
<style type="text/css">
	.st0{fill:#FDD835;}
	.st1{fill:#FBC02D;}
	.st2{fill:#FFFFFF;}
</style>
<g>
	<path class="st0" d="M5.9,40c-1.5,0-3-0.6-4.1-1.7c-2.3-2.3-2.3-5.9-0.1-8.2c-3.1-7.2-0.9-16.5,5.5-22.9c6.4-6.4,15.7-8.6,22.9-5.5
		c2.3-2.2,6-2.2,8.2,0.1c2.3,2.3,2.3,5.9,0.1,8.2c3.1,7.2,0.9,16.5-5.5,22.9c-6.4,6.4-15.7,8.6-22.9,5.5C8.8,39.5,7.3,40,5.9,40z"/>
	<path class="st1" d="M7.5,27.5H10V30H7.5V27.5z M22.5,17.5H25V20h-2.5V17.5z M30,15h2.5v2.5H30V15z"/>
	<path class="st2" d="M11.2,11.5L9.4,9.7c3-3,6.8-4.9,10.6-5.1l0.1,2.5C17,7.3,13.7,8.9,11.2,11.5z M24.4,7.9
		c-0.6-0.3-1.3-0.5-2.1-0.6l0.4-2.5c0.9,0.2,1.8,0.4,2.7,0.8L24.4,7.9z M15,20h2.5v2.5H15V20z M27.5,22.5H30V25h-2.5V22.5z"/>
	<path class="st1" d="M7.5,17.5H10V20H7.5V17.5z M20,27.5h2.5V30H20V27.5z M15,30h2.5v2.5H15V30z M32.8,30.3
		c-6.4,6.4-15.7,8.6-22.9,5.5c-1.1,1.1-2.6,1.6-4.1,1.6c-1.5,0-3-0.6-4.1-1.7C0.9,35,0.4,34,0.1,32.9c-0.4,1.9,0.1,3.9,1.6,5.4
		C2.9,39.4,4.4,40,5.9,40c1.5,0,2.9-0.5,4.1-1.6c7.2,3.1,16.5,0.9,22.9-5.5c4.8-4.8,7.3-11.3,6.8-17.3C39.4,20.8,37,26.2,32.8,30.3z
		 M18.1,12.3h2.5v2.5h-2.5V12.3z"/>
</g>
</svg>
