<svg height="512pt" viewBox="-32 0 512 512" width="512pt" xmlns="http://www.w3.org/2000/svg"><path d="m343.359375 512h-343.359375v-325.921875l104.640625-122.078125h238.71875zm0 0" fill="#ff668b"/><path d="m104.671875 0h239.328125v96h-239.328125zm0 0" fill="#ff668b"/><path d="m240 512h208l-104.640625-112zm0 0" fill="#c6d2e5"/><path d="m128 416c-35.296875 0-64-28.703125-64-64 0-31.054688 43.390625-81.007812 52.097656-90.6875l11.902344-13.265625 11.902344 13.265625c8.707031 9.695312 52.097656 59.632812 52.097656 90.6875 0 35.296875-28.703125 64-64 64zm0 0" fill="#fff"/><path d="m343.359375 64h-238.71875l-104.226563 121.601562h239.984376zm0 0" fill="#f7487a"/><path d="m240.398438 185.601562-.398438.476563v325.921875l103.359375-112v-336zm0 0" fill="#e4edfb"/><path d="m447.585938 185.601562-104.226563-121.601562v336l104.640625 112v-325.921875zm0 0" fill="#d7e1f2"/><path d="m112 96h32v31.199219h-32zm0 0" fill="#fff"/><path d="m176 96h32v31.199219h-32zm0 0" fill="#fff"/><path d="m128 384c-29.28125 0-53.777344-19.871094-61.34375-46.769531-1.632812 5.203125-2.65625 10.195312-2.65625 14.769531 0 35.296875 28.703125 64 64 64s64-28.703125 64-64c0-4.574219-1.023438-9.566406-2.65625-14.769531-7.566406 26.898437-32.0625 46.769531-61.34375 46.769531zm0 0" fill="#efefef"/></svg>