<?xml version="1.0" encoding="utf-8"?>
<!-- Generator: Adobe Illustrator 21.0.0, SVG Export Plug-In . SVG Version: 6.00 Build 0)  -->
<svg version="1.1" id="Layer_1" xmlns="http://www.w3.org/2000/svg" xmlns:xlink="http://www.w3.org/1999/xlink" x="0px" y="0px"
	 viewBox="0 0 510 510" style="enable-background:new 0 0 510 510;" xml:space="preserve">
<style type="text/css">
	.st0{fill:#FDD835;}
	.st1{fill:#FBC02D;}
	.st2{fill:#FFFFFF;}
	.st3{fill:#FFA000;}
</style>
<g>
	<path class="st0" d="M225.5,510c-72.9,0-145.8-27.7-201.3-83.3L0.1,402.6L402.7,0l24.1,24.1c111,111,111,291.6,0,402.6
		C371.3,482.3,298.4,510,225.5,510z"/>
	<path class="st1" d="M188,477.3c1.7,0,3.4,0.2,5.1,0.2c9.1,0,18.3-0.4,27.4-1.3V243.3l161.8,161.8c4-3.6,8.2-7,12-10.9
		c3.9-3.9,7.3-8,10.9-12.1L240.9,217.8h235.2c0.9-10.8,1.2-21.6,0.9-32.5H220.5v-3.1l-35.6,35.6h3.1L188,477.3L188,477.3z"/>
	<g>
		<path class="st2" d="M324.9,127.6h31.9v31.9h-31.9V127.6z"/>
		<path class="st2" d="M255.1,366.7h31.9v31.9h-31.9V366.7z"/>
		<path class="st2" d="M111.6,382.6h31.9v31.9h-31.9V382.6z"/>
		<path class="st2" d="M398.5,79.8h31.9v31.9h-31.9V79.8z"/>
		<path class="st2" d="M377.8,255.1h31.9V287h-31.9V255.1z"/>
	</g>
	<path class="st3" d="M426.8,24.1L402.7,0l-0.4,0.4c102.7,111.5,100.3,285.7-7.9,393.8c-55.5,55.5-128.4,83.3-201.3,83.3
		c-69.2,0-138.2-25.3-192.5-75.3l-0.4,0.4l24.1,24.1C79.7,482.3,152.6,510,225.5,510c72.9,0,145.8-27.7,201.3-83.3
		C537.8,315.8,537.8,135.1,426.8,24.1z"/>
</g>
</svg>
