<?xml version="1.0" encoding="utf-8"?>
<!-- Generator: Adobe Illustrator 21.0.0, SVG Export Plug-In . SVG Version: 6.00 Build 0)  -->
<svg version="1.1" id="Layer_1" xmlns="http://www.w3.org/2000/svg" xmlns:xlink="http://www.w3.org/1999/xlink" x="0px" y="0px"
	 viewBox="0 0 28 28" style="enable-background:new 0 0 28 28;" xml:space="preserve">
<style type="text/css">
	.st0{fill:none;}
</style>
<g>
	<path class="st0" d="M0,0h28v28H0V0z"/>
	<path d="M27.7,26.3l-8.2-8.4C21.1,16,22,13.6,22,11c0-6.1-4.9-11-11-11S0,4.9,0,11s4.9,11,11,11c2.7,0,5.2-1,7.2-2.7l8.1,8.4
		c0.2,0.2,0.5,0.3,0.7,0.3c0.3,0,0.5-0.1,0.7-0.3C28.1,27.3,28.1,26.7,27.7,26.3z M11,19.8c-4.8,0-8.8-3.9-8.8-8.8S6.2,2.2,11,2.2
		s8.8,3.9,8.8,8.8S15.8,19.8,11,19.8z"/>
</g>
</svg>
