<?xml version="1.0" encoding="utf-8"?>
<!-- Generator: Adobe Illustrator 21.0.0, SVG Export Plug-In . SVG Version: 6.00 Build 0)  -->
<svg version="1.1" id="Capa_1" xmlns="http://www.w3.org/2000/svg" xmlns:xlink="http://www.w3.org/1999/xlink" x="0px" y="0px"
	 viewBox="0 0 28 28" style="enable-background:new 0 0 28 28;" xml:space="preserve">
<style type="text/css">
	.st0{fill:none;}
</style>
<g>
	<path class="st0" d="M0,0h28v28H0V0z"/>
	<path d="M26.9,6.6c0-0.1,0-0.2-0.1-0.2c-0.1-0.3-0.4-0.5-0.6-0.5L14.4,0.1c-0.3-0.1-0.6-0.1-0.9,0L1.7,5.8C1.3,6,1.1,6.4,1.1,6.8
		v14.4c0,0.4,0.2,0.8,0.6,0.9l11.8,5.7l0.5,0.1l0.1-0.3l0,0.3c0,0,0.1,0,0.1,0c0,0,0.1,0,0.1,0l12.2-5.9c0.4-0.2,0.6-0.5,0.6-0.9
		L26.9,6.6L26.9,6.6z M12.9,13.2v12.1l-9.8-4.7V8.4L12.9,13.2z M15,13.2l4.2-2.1V14c0,0.6,0.5,1,1,1c0.6,0,1-0.5,1-1v-3.8l3.5-1.7
		v12.1L15,25.3V13.2z M11,3.6l3-1.5l9.5,4.6l-3,1.5L11,3.6z M18.1,9.4l-4.1,2L4.5,6.8l4.1-2L18.1,9.4z"/>
</g>
</svg>
