<?xml version="1.0" encoding="utf-8"?>
<!-- Generator: Adobe Illustrator 21.0.0, SVG Export Plug-In . SVG Version: 6.00 Build 0)  -->
<svg version="1.1" id="Capa_1" xmlns="http://www.w3.org/2000/svg" xmlns:xlink="http://www.w3.org/1999/xlink" x="0px" y="0px"
	 viewBox="0 0 501.4 512" style="enable-background:new 0 0 501.4 512;" xml:space="preserve">
<style type="text/css">
	.st0{fill:#ECCE93;}
	.st1{fill:#E5BD76;}
	.st2{fill:#BFC9D1;}
	.st3{fill:#D7DEE2;}
	.st4{fill:#BA8A5A;}
	.st5{fill:#C59969;}
	.st6{fill:#B14F03;}
	.st7{fill:#9CCC65;}
	.st8{fill:#7CB342;}
	.st9{fill:#EF4B03;}
	.st10{fill:#FFFFFF;}
	.st11{fill:#DD4503;}
</style>
<g>
	<path class="st0" d="M421,330.5l-168.1-0.3l-172.5-0.3c0,0-0.1,0-0.1,0c-32.9,0-59.7,26.7-59.7,59.6c-0.1,32.9,26.7,59.8,59.6,59.9
		l172.7,0.4l167.9,0.3c0,0,0.1,0,0.1,0c32.9,0,59.7-26.7,59.7-59.6C480.7,357.4,453.9,330.6,421,330.5z"/>
	<path class="st1" d="M421,240.4l-168.1-0.3l-172.5-0.3c0,0-0.1,0-0.1,0c-32.9,0-59.7,26.7-59.7,59.6c-0.1,32.9,26.7,59.8,59.6,59.9
		l172.7,0.4l167.9,0.3c0,0,0.1,0,0.1,0c32.9,0,59.7-26.7,59.7-59.6C480.7,267.3,453.9,240.5,421,240.4z"/>
	<path class="st2" d="M501.4,420.6v14.7c0,42.3-34.4,76.7-76.7,76.7h-348c-30,0-56.1-17.3-68.6-42.5c-0.7-1.5-1.4-3-2.1-4.5
		c-3.8-9.1-6-19.1-6-29.6v-14.7H501.4z"/>
	<path class="st3" d="M484.4,420.6c-4.8,37.7-37.1,66.9-76.1,66.9h-348c-21.2,0-40.4-8.6-54.3-22.6c-3.8-9.1-6-19.1-6-29.6v-14.7
		H484.4z"/>
	<path class="st4" d="M421,163.6l-168.1-0.3l0,0v0l-172.5-0.3c0,0-0.1,0-0.1,0c-32.9,0-59.7,26.7-59.7,59.6
		c-0.1,32.9,26.7,59.8,59.6,59.9l53.8,0.1l-0.1,67c-0.1,25.4,20.6,46.1,45.9,46.1h0.1c12.3,0,23.8-4.8,32.5-13.4
		c8.7-8.7,13.5-20.2,13.5-32.5l0-30c0-3.6,1.4-7,4-9.6c2.6-2.6,5.9-4,9.6-3.9c3.6,0,7,1.4,9.6,4c2,2,3.2,4.4,3.7,7.1
		c0.2,1.6,0.2,2.5,0.2,2.5l-0.1,111.6c1.3,24.2,21.3,43.5,45.9,43.6h0.1c25.3,0,46-20.6,46-45.9L345,283l75.7,0.1c0,0,0.1,0,0.1,0
		c32.9,0,59.7-26.7,59.7-59.6C480.7,190.5,453.9,163.7,421,163.6z"/>
	<path class="st5" d="M421,150l-168.1-0.3l0,0v0l-172.5-0.3c0,0-0.1,0-0.1,0c-32.9,0-59.7,26.7-59.7,59.6
		c-0.1,32.9,26.7,59.8,59.6,59.9l53.8,0.1l-0.1,67c-0.1,25.4,20.6,46.1,45.9,46.1h0.1c12.3,0,23.8-4.8,32.5-13.4
		c8.7-8.7,13.5-20.2,13.5-32.5l0-30c0-3.6,1.4-7,4-9.6c2.6-2.6,5.9-4,9.6-3.9c3.6,0,7,1.4,9.6,4c2,2,3.2,4.4,3.7,7.1
		c0.2,1.6,0.2,2.5,0.2,2.5l-0.1,111.6c1.3,24.2,21.3,43.5,45.9,43.6h0.1c25.3,0,46-20.6,46-45.9l0.2-145.9l75.7,0.1c0,0,0.1,0,0.1,0
		c32.9,0,59.7-26.7,59.7-59.6C480.7,176.9,453.9,150.1,421,150z"/>
	<path class="st6" d="M252.8,415.1c0,0.9,0,1.7,0.1,2.6V373L252.8,415.1z"/>
	<path class="st7" d="M344.1,146L281,50.6l0.3-2.8c0.6-5.3,1.3-10.4,1.8-13.3c2.6-16,28.4-29.3,33.5-31.8l5.4-2.6l3.9,4.6
		c3.6,4.3,21.7,26.4,18.5,42.1l-0.6,2.8c12,0.8,24,4.6,25.8,5.2l5.8,1.9l-0.5,6.1c-0.2,1.8-1.3,14.4-5.3,25.7l2.9,0.6
		c15.7,3.1,29,28.4,31.5,33.4l2.7,5.4l-4.6,4c-4.3,3.8-26.6,22.3-42.4,18.5c-2.9-0.7-7.8-2.1-13-3.6L344.1,146z"/>
	<path class="st8" d="M346.9,146.8c5.1,1.5,10.1,2.9,13,3.6c4.5,1.1,9.5,0.3,14.5-1.4c-0.9-13.6-5.2-27.1-13.2-39.2L321,49
		c-8-12.1-18.8-21.3-30.9-27.5c-3.5,3.9-6.2,8.3-6.9,12.9c-0.5,2.9-1.2,8-1.8,13.3l-0.3,2.8l63.1,95.4L346.9,146.8z"/>
	<path class="st9" d="M171.3,191.8c-6.8-10.2-8.6-22.9-5.1-34.6l24.7-82.2c4.4-14.6,13.8-27.3,26.5-35.7
		c30-19.9,70.6-11.6,90.5,18.4l40.3,60.8c19.9,30,11.6,70.6-18.4,90.5c-12.7,8.4-28.1,12.1-43.2,10.4l-85.3-9.4
		C189,208.7,178.1,202,171.3,191.8z"/>
	<path class="st10" d="M224.1,75.5l15.7,0v15.7h-15.7V75.5z"/>
	<path class="st10" d="M255.4,59.8l15.7,0v15.7l-15.7,0V59.8z"/>
	<path class="st4" d="M81,220.2H110v28.9H81V220.2z"/>
	<path class="st10" d="M377,435.5H406l0,28.9l-28.9,0V435.5z"/>
	<path class="st4" d="M81,170.8l28.9,0v28.9H81V170.8z"/>
	<path class="st11" d="M200.6,116h15.7v15.7h-15.7V116z"/>
	<path class="st11" d="M200.6,162.9h15.7v15.7h-15.7V162.9z"/>
	<path class="st11" d="M253.9,144.8h15.7v15.7l-15.7,0V144.8z"/>
	<path class="st11" d="M301.4,155.1l15.7,0v15.7h-15.7L301.4,155.1z"/>
	<path class="st11" d="M301.4,123.8l15.7,0v15.7l-15.7,0L301.4,123.8z"/>
	<path class="st11" d="M299.6,210.8l-83.2-9.2c-9.7-1.1-19.3-4.7-26.2-11.6c-11.3-11.1-15.2-27-10.8-41.5l24.7-82.2
		c3.6-12.1,10.8-22.8,20.3-31c-2.3,1.2-4.6,2.5-6.9,3.9c-12.7,8.4-22.1,21.1-26.5,35.7l-24.2,80.7c-2.7,9-3,18.8,0.4,27.7
		c5.7,15,18.9,25,34.2,26.7l85.3,9.4c15.2,1.7,30.5-2,43.2-10.4c2.2-1.5,4.3-3.1,6.3-4.8C324.8,209.8,312.1,212.2,299.6,210.8z"/>
</g>
</svg>
