<svg height="512pt" viewBox="0 0 512.312 512" width="512pt" xmlns="http://www.w3.org/2000/svg"><path d="m486.960938 47.617188-34 34-22.5625-22.558594 34-34c6.226562-6.222656 16.335937-6.222656 22.5625 0 6.222656 6.222656 6.222656 16.335937 0 22.558594zm0 0" fill="#d7dee2"/><path d="m215.410156 183.578125 135.71875-135.875 113.222656 113.09375-135.71875 135.875zm0 0" fill="#ecce93"/><path d="m362.558594 285.296875-68 67.839844-135.679688-135.679688 67.839844-68zm0 0" fill="#c59969"/><path d="m200.800781 175.378906-41.921875 42.078125 135.679688 135.679688 42.082031-41.917969zm0 0" fill="#ba8a5a"/><path d="m260.6875 454.992188-203.648438-203.644532 33.9375-33.953125c15.101563-15.105469 35.183594-23.425781 56.558594-23.425781s41.457032 8.320312 56.5625 23.425781l90.511719 90.511719c15.101563 15.105469 23.4375 35.199219 23.4375 56.574219 0 21.363281-8.335937 41.457031-23.4375 56.5625zm0 0" fill="#d7dee2"/><path d="m307.035156 91.867188 44.160156-44.15625 113.113282 113.113281-44.160156 44.15625zm0 0" fill="#e5bd76"/><path d="m464.335938 186.210938c-12.816407 0-24.878907-4.992188-33.9375-14.050782l-90.496094-90.527344c-9.054688-9.054687-14.0625-21.117187-14.0625-33.933593 0-12.816407 5.007812-24.882813 14.0625-33.953125 18.082031-18.097656 49.730468-18.144532 67.875 0l90.496094 90.511718c18.71875 18.703126 18.71875 49.167969 0 67.886719-9.074219 9.074219-21.121094 14.066407-33.9375 14.066407zm0 0" fill="#c59969"/><path d="m64 319.699219h32v32h-32zm0 0" fill="#2d2d30"/><path d="m32 383.699219h32v32h-32zm0 0" fill="#57565c"/><path d="m0 479.699219h32v32h-32zm0 0" fill="#b0b4b9"/><path d="m64 447.699219h32v32h-32zm0 0" fill="#2d2d30"/><path d="m96 383.699219h32v32h-32zm0 0" fill="#b0b4b9"/><path d="m160 431.699219h32v32h-32zm0 0" fill="#57565c"/><path d="m498.273438 142.65625c-9.058594 9.058594-21.105469 14.050781-33.9375 14.050781-12.816407 0-24.878907-4.992187-33.9375-14.050781l-90.496094-90.527344c-5.453125-5.453125-9.230469-12.0625-11.535156-19.199218-1.535157 4.71875-2.527344 9.648437-2.527344 14.753906 0 12.8125 5.007812 24.878906 14.0625 33.933594l90.496094 90.527343c9.058593 9.058594 21.121093 14.050781 33.9375 14.050781 12.832031 0 24.878906-4.992187 33.9375-14.050781 13.167968-13.152343 16.863281-32.0625 11.519531-48.671875-2.273438 7.007813-5.96875 13.648438-11.519531 19.183594zm0 0" fill="#ba8a5a"/><path d="m294.625 381.761719c-18.738281 18.734375-49.136719 18.734375-67.871094 0l-150.066406-150.0625-19.648438 19.648437 203.648438 203.644532 33.9375-33.933594c15.101562-15.105469 23.4375-35.199219 23.4375-56.5625 0-6.75-1.117188-13.277344-2.71875-19.644532-3.503906 13.804688-10.382812 26.574219-20.71875 36.910157zm0 0" fill="#bfc9d1"/></svg>