<?xml version="1.0" encoding="utf-8"?>
<!-- Generator: Adobe Illustrator 21.0.0, SVG Export Plug-In . SVG Version: 6.00 Build 0)  -->
<svg version="1.1" id="Layer_1" xmlns="http://www.w3.org/2000/svg" xmlns:xlink="http://www.w3.org/1999/xlink" x="0px" y="0px"
	 viewBox="0 0 40 40" style="enable-background:new 0 0 40 40;" xml:space="preserve">
<style type="text/css">
	.st0{fill:none;}
	.st1{fill:#AA854B;}
	.st2{fill:#916E40;}
	.st3{fill:#ECCE93;}
	.st4{fill:#FFFFFF;}
	.st5{fill:#E5BD76;}
</style>
<g>
	<path class="st0" d="M0,0h40v40H0V0z"/>
	<g>
		<path class="st1" d="M35.3,25.9L33.2,34H6.8l-2.1-8.1H35.3z"/>
		<path class="st2" d="M35.3,25.9L33.9,31c-1.1-0.1-2.2-0.3-3.1-0.8c-1.1,0.5-2.3,0.8-3.6,0.8c-1.2,0-2.5-0.3-3.6-0.8
			C22.5,30.7,21.3,31,20,31c-1.2,0-2.5-0.3-3.6-0.8c-1.1,0.5-2.3,0.8-3.6,0.8s-2.5-0.3-3.6-0.8c-1,0.5-2,0.8-3.1,0.8l-1.4-5.1H35.3z
			"/>
		<path class="st3" d="M38.9,26.4c-2.5,2.7-6,2.6-8.1,0.8c-1,0.8-2.3,1.3-3.6,1.3c-1.3,0-2.6-0.5-3.6-1.3c-1,0.8-2.3,1.3-3.6,1.3
			c-1.3,0-2.6-0.5-3.6-1.3c-1,0.8-2.3,1.3-3.6,1.3s-2.6-0.5-3.6-1.3c-2.2,1.8-5.6,1.9-8.2-0.8c-0.8-0.9-1.1-2.1-1.1-3.3
			c0-0.8-0.3-0.4,2.5-3.8c0-1.9,0.6-3.8,1.7-5.3C7.8,9,13.7,6,20,6c6.3,0,12.2,3,15.8,7.9c1.1,1.5,1.7,3.4,1.7,5.3v0
			c2.8,3.4,2.4,3,2.5,3.8C40.1,24.3,39.7,25.5,38.9,26.4z"/>
		<path class="st4" d="M11.3,11h2.5v2.5h-2.5V11z M16.3,8.5h2.5V11h-2.5V8.5z M21.3,8.5h2.5V11h-2.5V8.5z M26.2,11h2.5v2.5h-2.5V11z
			"/>
		<path class="st5" d="M34.4,26c-1.3,0-2.6-0.5-3.6-1.3c-1,0.8-2.3,1.3-3.6,1.3c-1.3,0-2.6-0.5-3.6-1.3c-1,0.8-2.3,1.3-3.6,1.3
			c-1.3,0-2.6-0.5-3.6-1.3c-1,0.8-2.3,1.3-3.6,1.3s-2.6-0.5-3.6-1.3C8.2,25.5,7,26,5.6,26c-2.5,0-4.6-1.7-5.3-3.9
			C0,22.5,0,22.6,0,22.9c0,3.1,2.5,5.6,5.6,5.6c1.3,0,2.6-0.5,3.6-1.3c1,0.8,2.3,1.3,3.6,1.3s2.6-0.5,3.6-1.3c1,0.8,2.3,1.3,3.6,1.3
			c1.3,0,2.6-0.5,3.6-1.3c1,0.8,2.3,1.3,3.6,1.3c1.3,0,2.6-0.5,3.6-1.3c1,0.8,2.3,1.3,3.6,1.3c3.1,0,5.6-2.5,5.6-5.6
			c0-0.3,0-0.4-0.3-0.8C39,24.3,36.9,26,34.4,26z"/>
	</g>
</g>
</svg>
