<svg height="512pt" viewBox="0 0 512 512" width="512pt" xmlns="http://www.w3.org/2000/svg"><path d="m480 512h-448c-17.679688 0-32-14.320312-32-32v-217.679688l333.023438-174.433593c13.457031-7.039063 30-3.664063 39.617187 8.082031l139.359375 170.320312v213.710938c0 17.679688-14.320312 32-32 32zm0 0" fill="#ecce93"/><path d="m333.023438 87.886719-333.023438 174.433593v73.679688h16c39.984375 0 39.984375 32 79.953125 32 39.984375 0 39.984375-32 79.984375-32 39.964844 0 39.964844 32 79.933594 32 40 0 40-32 80-32 40.03125 0 40.03125 32 80.066406 32 40.03125 0 40.03125-32 80.0625-32h16v-69.710938l-139.359375-170.320312c-9.617187-11.761719-26.160156-15.136719-39.617187-8.082031zm0 0" fill="#f7487a"/><path d="m372.640625 95.96875c-9.617187-11.746094-26.160156-15.121094-39.617187-8.082031l-333.023438 174.433593v.078126h508.816406zm0 0" fill="#ff668b"/><path d="m192 416h320v32h-320zm0 0" fill="#ff668b"/><path d="m64 416h32v32h-32zm0 0" fill="#fff"/><path d="m128 416h32v32h-32zm0 0" fill="#fff"/><path d="m272 112h-32c0-16-4.800781-31.039062-12.960938-43.519531-14.238281-21.921875-38.878906-36.480469-67.039062-36.480469h-32v-32h32c44.800781 0 83.359375 26.398438 101.121094 64.320312 7.039062 14.398438 10.878906 30.71875 10.878906 47.679688zm0 0" fill="#c59969"/><path d="m272 112h-32c0-16-4.800781-31.039062-12.960938-43.519531 9.121094-2.878907 18.882813-4.480469 28.960938-4.480469 1.761719 0 3.519531 0 5.121094.320312 7.039062 14.398438 10.878906 30.71875 10.878906 47.679688zm0 0" fill="#ba8a5a"/><path d="m320 160c0 35.347656-28.652344 64-64 64s-64-28.652344-64-64 28.652344-64 64-64 64 28.652344 64 64zm0 0" fill="#9b7cab"/><path d="m256 192c-29.742188 0-54.574219-20.464844-61.726562-48-1.34375 5.152344-2.273438 10.449219-2.273438 16 0 35.296875 28.703125 64 64 64s64-28.703125 64-64c0-5.550781-.929688-10.847656-2.273438-16-7.152343 27.535156-31.984374 48-61.726562 48zm0 0" fill="#88679b"/></svg>