<?xml version="1.0" encoding="utf-8"?>
<!-- Generator: Adobe Illustrator 21.0.0, SVG Export Plug-In . SVG Version: 6.00 Build 0)  -->
<svg version="1.1" id="Capa_1" xmlns="http://www.w3.org/2000/svg" xmlns:xlink="http://www.w3.org/1999/xlink" x="0px" y="0px"
	 viewBox="0 0 28 28" style="enable-background:new 0 0 28 28;" xml:space="preserve">
<style type="text/css">
	.st0{fill:none;}
</style>
<g>
	<path class="st0" d="M0,0h28v28H0V0z"/>
	<path d="M14,15c4.1,0,7.5-3.4,7.5-7.5S18.1,0,14,0S6.5,3.4,6.5,7.5S9.9,15,14,15z M14,2c3,0,5.5,2.5,5.5,5.5S17,13,14,13
		s-5.5-2.5-5.5-5.5S11,2,14,2z M1,28h26c0.6,0,1-0.4,1-1c0-5.2-4.2-9.4-9.4-9.4H9.4C4.2,17.6,0,21.8,0,27C0,27.6,0.4,28,1,28z
		 M9.4,19.6h9.2c3.8,0,6.9,2.8,7.4,6.4H2C2.5,22.4,5.6,19.6,9.4,19.6z"/>
</g>
</svg>
