<svg height="512pt" viewBox="0 0 512 512" width="512pt" xmlns="http://www.w3.org/2000/svg"><path d="m306.398438 224h-303.199219l8.800781-21.921875c6.078125-15.039063 14.238281-29.117187 24.320312-42.078125 45.121094-58.878906 127.519532-96 219.679688-96 1.601562 0 27.839844 1.441406 27.839844 1.441406zm0 0" fill="#ffda47"/><path d="m313.921875 224h-246.242187l20-25.761719c11.519531-14.71875 26.558593-27.679687 44.320312-38.238281 30.238281-18.078125 67.839844-29.28125 108.160156-31.519531 5.28125-.320313 25.761719-.480469 25.761719-.480469zm0 0" fill="#fcc515"/><path d="m512 136c0 75.109375-60.890625 136-136 136s-136-60.890625-136-136 60.890625-136 136-136 136 60.890625 136 136zm0 0" fill="#ff668b"/><path d="m448 136c0 39.765625-32.234375 72-72 72s-72-32.234375-72-72 32.234375-72 72-72 72 32.234375 72 72zm0 0" fill="#e4edfb"/><path d="m119.824219 416h272.335937v96h-272.335937zm0 0" fill="#77959e"/><path d="m308.414062 160c9.9375 27.871094 36.339844 48 67.585938 48s57.632812-20.128906 67.585938-48zm0 0" fill="#d7e1f2"/><path d="m388.289062 448h-264.578124s-16.511719-9.425781-22.511719-12.800781c-60.925781-34.289063-101.199219-56.941407-101.199219-147.199219v-96h512v96c0 90.257812-40.273438 112.910156-101.199219 147.199219-6 3.375-22.511719 12.800781-22.511719 12.800781zm0 0" fill="#d7dee2"/><g fill="#bfc9d1"><path d="m80 256h32v32h-32zm0 0"/><path d="m144 256h32v32h-32zm0 0"/><path d="m208 256h32v32h-32zm0 0"/><path d="m272 256h32v32h-32zm0 0"/><path d="m336 256h32v32h-32zm0 0"/><path d="m400 256h32v32h-32zm0 0"/></g></svg>