<svg height="512pt" viewBox="0 0 512 512" width="512pt" xmlns="http://www.w3.org/2000/svg"><path d="m352 0v208c0 63.519531-34.71875 102.878906-80 110.558594v193.441406h-32v-193.441406c-45.28125-7.679688-80-47.039063-80-110.558594v-208h32v208c0 45.761719 20.480469 70.558594 48 61.761719v-269.761719h32v269.761719c27.519531 8.796875 48-16 48-61.761719v-208zm0 0" fill="#d7dee2"/><path d="m160 160h32v64h-32zm0 0" fill="#bfc9d1"/><path d="m240 160h32v64h-32zm0 0" fill="#bfc9d1"/><path d="m320 160h32v64h-32zm0 0" fill="#bfc9d1"/><path d="m448 176h-384c-35.296875 0-64-28.703125-64-64s28.703125-64 64-64h384c35.296875 0 64 28.703125 64 64s-28.703125 64-64 64zm0 0" fill="#e76e54"/><g fill="#dd523c"><path d="m176 112c-8.832031 0-16-7.167969-16-16v-48h32v48c0 8.832031-7.167969 16-16 16zm0 0"/><path d="m256 112c-8.832031 0-16-7.167969-16-16v-48h32v48c0 8.832031-7.167969 16-16 16zm0 0"/><path d="m336 112c-8.832031 0-16-7.167969-16-16v-48h32v48c0 8.832031-7.167969 16-16 16zm0 0"/><path d="m448 144h-384c-29.742188 0-54.574219-20.464844-61.726562-48-1.34375 5.152344-2.273438 10.449219-2.273438 16 0 35.296875 28.703125 64 64 64h384c35.296875 0 64-28.703125 64-64 0-5.550781-.929688-10.847656-2.273438-16-7.152343 27.535156-31.984374 48-61.726562 48zm0 0"/></g><path d="m53.007812 88.335938h32v32h-32zm0 0" fill="#fff"/><path d="m432 88.335938h32v32h-32zm0 0" fill="#fff"/></svg>