<?xml version="1.0" encoding="utf-8"?>
<!-- Generator: Adobe Illustrator 21.0.0, SVG Export Plug-In . SVG Version: 6.00 Build 0)  -->
<svg version="1.1" id="Capa_1" xmlns="http://www.w3.org/2000/svg" xmlns:xlink="http://www.w3.org/1999/xlink" x="0px" y="0px"
	 viewBox="0 0 18 18" style="enable-background:new 0 0 18 18;" xml:space="preserve">
<path d="M17.7,16.3l-4.4-4c1.1-1.4,1.8-3.1,1.8-4.8c0-4.2-3.4-7.5-7.5-7.5S0,3.4,0,7.5s3.4,7.5,7.5,7.5c1.6,0,3-0.5,4.3-1.4l4.5,4
	c0.2,0.2,0.4,0.3,0.7,0.3c0.3,0,0.5-0.1,0.7-0.3C18.1,17.4,18.1,16.7,17.7,16.3z M7.5,2c3.1,0,5.6,2.5,5.6,5.6s-2.5,5.6-5.6,5.6
	S2,10.6,2,7.5S4.5,2,7.5,2z"/>
</svg>
