<svg height="512pt" viewBox="-96 0 512 512" width="512pt" xmlns="http://www.w3.org/2000/svg"><path d="m272 512h-224c-26.464844 0-48-21.535156-48-48v-85.328125c0-70.351563 22.335938-136.046875 66.414062-195.230469 16.035157-21.539062 29.585938-61.503906 29.585938-87.265625v-48.175781h128v48.160156c0 25.777344 13.550781 65.742188 29.585938 87.28125 44.078124 59.183594 66.414062 124.878906 66.414062 195.230469v85.328125c0 26.464844-21.535156 48-48 48zm0 0" fill="#e4edfb"/><path d="m224 48h-128v48.160156c0 4.832032-.609375 10.238282-1.488281 15.839844h130.976562c-.878906-5.601562-1.488281-11.023438-1.488281-15.839844zm0 0" fill="#d7e1f2"/><path d="m257.921875 16-32 64h-131.84375l-32-64zm0 0" fill="#dd523c"/><path d="m32.144531 240c-21.183593 43.601562-32.144531 89.984375-32.144531 138.671875v85.328125c0 26.464844 21.535156 48 48 48h224c26.464844 0 48-21.535156 48-48v-85.328125c0-48.6875-10.960938-95.070313-32.144531-138.671875zm0 0" fill="#aa854b"/><g fill="#fff"><path d="m144 352h32v32h-32zm0 0"/><path d="m208 352h32v32h-32zm0 0"/><path d="m80 352h32v32h-32zm0 0"/></g><path d="m32 0h256v32h-256zm0 0" fill="#e76e54"/><path d="m272 480h-224c-26.464844 0-48-21.535156-48-48v32c0 26.464844 21.535156 48 48 48h224c26.464844 0 48-21.535156 48-48v-32c0 26.464844-21.535156 48-48 48zm0 0" fill="#916e40"/></svg>