<?xml version="1.0" encoding="utf-8"?>
<!-- Generator: Adobe Illustrator 21.0.0, SVG Export Plug-In . SVG Version: 6.00 Build 0)  -->
<svg version="1.1" id="Capa_1" xmlns="http://www.w3.org/2000/svg" xmlns:xlink="http://www.w3.org/1999/xlink" x="0px" y="0px"
	 viewBox="0 0 28 28" style="enable-background:new 0 0 28 28;" xml:space="preserve">
<style type="text/css">
	.st0{fill:none;}
	.st1{fill:#FFDA47;}
	.st2{fill:#FCC515;}
</style>
<g>
	<path class="st0" d="M0,0h28v28H0V0z"/>
	<g>
		<path class="st1" d="M27.3,10.3l-9.1-0.8l-3.6-8.4c-0.3-0.6-1.1-0.6-1.3,0L9.7,9.5l-9.1,0.8c-0.6,0.1-0.9,0.8-0.4,1.3l6.8,6
			l-2,8.9c-0.1,0.6,0.5,1.1,1.1,0.8l7.8-4.7l7.8,4.7c0.5,0.3,1.2-0.2,1.1-0.8l-2-8.9l6.8-6C28.2,11.1,28,10.4,27.3,10.3z"/>
		<path class="st2" d="M14.7,1.1c-0.3-0.6-1.1-0.6-1.3,0L9.7,9.5l-9.1,0.8c-0.6,0.1-0.9,0.8-0.4,1.3l6.8,6l-2,8.9
			c-0.1,0.6,0.5,1.1,1.1,0.8l1.7-1c0.2-10,4.9-17,8.5-21L14.7,1.1z"/>
	</g>
</g>
</svg>
