<svg height="512pt" viewBox="0 -48 512.00351 512" width="512pt" xmlns="http://www.w3.org/2000/svg"><path d="m297.632812 416h-153.28125c-79.582031 0-144.351562-64.765625-144.351562-144.351562 0-63.328126 42.367188-120.222657 103.054688-138.335938l7.921874-2.367188c31.40625-78.65625 107.96875-130.945312 193.023438-130.945312 56.289062 0 108.992188 22.128906 148.414062 62.289062 39.425782 40.160157 60.578126 93.28125 59.554688 149.617188-2.066406 112.527344-98.226562 204.09375-214.335938 204.09375zm0 0" fill="#e76e54"/><path d="m297.632812 352h-41.632812v-32h41.632812c64.144532 0 117.230469-49.292969 118.351563-109.871094l32 .59375c-1.441406 77.902344-68.894531 141.277344-150.351563 141.277344zm0 0" fill="#dd523c"/><path d="m198.558594 170.707031-30.160156-10.6875c20.335937-57.425781 74.832031-96.019531 135.601562-96.019531v32c-47.230469 0-89.617188 30.019531-105.441406 74.707031zm0 0" fill="#dd523c"/><path d="m368 208c0 35.347656-28.652344 64-64 64s-64-28.652344-64-64c0-35.34375 28.652344-64 64-64s64 28.65625 64 64zm0 0" fill="#e4edfb"/><path d="m128 320h32v32h-32zm0 0" fill="#fff"/><path d="m192 320h32v32h-32zm0 0" fill="#fff"/><path d="m297.632812 384h-153.28125c-74.078124 0-135.246093-56.125-143.375-128.078125-.578124 5.183594-.976562 10.414063-.976562 15.726563 0 79.585937 64.769531 144.351562 144.351562 144.351562h153.265626c116.125 0 212.285156-91.566406 214.335937-204.109375.125-7.265625-.128906-14.480469-.738281-21.617187-7.582032 107.710937-101.085938 193.726562-213.582032 193.726562zm0 0" fill="#dd523c"/><path d="m336.113281 64h32v32h-32zm0 0" fill="#dd523c"/><path d="m304 192c26.800781 0 49.726562 16.578125 59.246094 40 3.011718-7.421875 4.753906-15.503906 4.753906-24 0-35.292969-28.703125-64-64-64s-64 28.707031-64 64c0 8.496094 1.742188 16.578125 4.753906 24 9.519532-23.421875 32.445313-40 59.246094-40zm0 0" fill="#d7e1f2"/></svg>