<?xml version="1.0" encoding="utf-8"?>
<!-- Generator: Adobe Illustrator 21.0.0, SVG Export Plug-In . SVG Version: 6.00 Build 0)  -->
<svg version="1.1" id="Layer_1" xmlns="http://www.w3.org/2000/svg" xmlns:xlink="http://www.w3.org/1999/xlink" x="0px" y="0px"
	 viewBox="0 0 40 40" style="enable-background:new 0 0 40 40;" xml:space="preserve">
<style type="text/css">
	.st0{fill:none;}
	.st1{fill:#9CCC65;}
	.st2{fill:#7CB342;}
	.st3{fill:#EF4B03;}
	.st4{fill:#FFFFFF;}
	.st5{fill:#DD4503;}
</style>
<g>
	<rect class="st0" width="40" height="40"/>
	<g>
		<path class="st1" d="M29.3,12.3H10.7L10.3,12c-0.7-0.6-1.3-1.1-1.7-1.4C6.7,8.8,7.2,4.1,7.3,3.1l0.1-1l1-0.1
			c0.9-0.1,5.6-0.6,7.4,1.3l0.3,0.3c1.2-1.6,2.8-2.9,3-3L20,0l0.8,0.6c0.2,0.2,1.8,1.5,3,3l0.3-0.3C26,1.5,30.6,1.9,31.6,2l1,0.1
			l0.1,1c0.1,0.9,0.6,5.6-1.3,7.4c-0.4,0.3-1,0.9-1.7,1.4L29.3,12.3z"/>
		<path class="st2" d="M29.7,12c0.7-0.6,1.3-1.1,1.7-1.4c0.6-0.5,0.9-1.3,1.1-2.1c-1.9-1.1-4.2-1.7-6.5-1.7H14
			c-2.4,0-4.6,0.6-6.5,1.7c0.2,0.8,0.6,1.6,1.1,2.1c0.4,0.3,1,0.9,1.7,1.4l0.4,0.3h18.7L29.7,12z"/>
		<path class="st3" d="M20,40c-2,0-3.9-0.9-5.2-2.4l-9-10.8c-1.6-1.9-2.5-4.3-2.5-6.8C3.4,14.1,8.2,9.3,14,9.3H26
			c5.9,0,10.7,4.8,10.7,10.7c0,2.5-0.9,4.9-2.5,6.8l-9,10.8C23.9,39.1,22,40,20,40z"/>
		<path class="st4" d="M8.5,17H11v2.6H8.5V17z M13.6,14.4h2.6V17h-2.6V14.4z"/>
		<path class="st5" d="M12.3,22.1h2.6v2.6h-2.6V22.1z M14.9,27.2h2.6v2.6h-2.6V27.2z M18.7,32.3h2.6v2.6h-2.6V32.3z M22.6,27.2h2.6
			v2.6h-2.6V27.2z M25.1,22.1h2.6v2.6h-2.6V22.1z M29,17h2.6v2.6H29V17z M23.8,14.4h2.6V17h-2.6V14.4z M18.7,17h2.6v2.6h-2.6V17z
			 M18.7,22.1h2.6v2.6h-2.6V22.1z M34.2,24.2l-8.8,10.5c-1,1.2-2.4,2.2-3.9,2.5c-2.5,0.5-5-0.4-6.6-2.3l-9-10.8
			c-1.3-1.6-2.1-3.5-2.4-5.6c0,0.4-0.1,0.9-0.1,1.3c0,2.5,0.9,4.9,2.5,6.8l8.8,10.6c1,1.2,2.3,2.1,3.8,2.4c2.6,0.6,5.1-0.3,6.7-2.3
			l9-10.8c1.6-1.9,2.5-4.3,2.5-6.8c0-0.4,0-0.9-0.1-1.3C36.3,20.7,35.5,22.7,34.2,24.2z"/>
		<path class="st4" d="M27.7,4.2h2.6v2.6h-2.6V4.2z"/>
	</g>
</g>
</svg>
