<?xml version="1.0" encoding="utf-8"?>
<!-- Generator: Adobe Illustrator 21.0.0, SVG Export Plug-In . SVG Version: 6.00 Build 0)  -->
<svg version="1.1" id="Layer_1" xmlns="http://www.w3.org/2000/svg" xmlns:xlink="http://www.w3.org/1999/xlink" x="0px" y="0px"
	 viewBox="0 0 40 40" style="enable-background:new 0 0 40 40;" xml:space="preserve">
<style type="text/css">
	.st0{fill:none;}
	.st1{fill:#9CCC65;}
	.st2{fill:#7CB342;}
	.st3{fill:#EF4B03;}
	.st4{fill:#FFFFFF;}
	.st5{fill:#DD4503;}
	.st6{fill:#A9B1B5;}
	.st7{fill:#BFC9D1;}
	.st8{fill:#D7DEE2;}
</style>
<g>
	<path class="st0" d="M0,0h40v40H0V0z"/>
	<g>
		<path class="st1" d="M30.1,33.5l-6-7.2l0-0.2c0-0.4,0-0.9,0-1.1c0.1-1.3,2-2.6,2.4-2.9l0.4-0.3l0.4,0.3c0.3,0.3,2,1.9,1.9,3.2
			l0,0.2c1,0,2,0.2,2.1,0.2l0.5,0.1l0,0.5c0,0.1,0,1.2-0.2,2.1l0.2,0c1.3,0.1,2.6,2,2.9,2.4l0.3,0.4l-0.3,0.4
			c-0.3,0.3-2,2.1-3.3,1.9c-0.2,0-0.7-0.1-1.1-0.2L30.1,33.5z"/>
		<path class="st2" d="M30.3,33.5c0.4,0.1,0.8,0.1,1.1,0.2c0.4,0,0.8-0.1,1.2-0.2c-0.2-1.1-0.7-2.2-1.4-3.1l-3.8-4.6
			c-0.8-0.9-1.7-1.6-2.8-1.9c-0.2,0.4-0.4,0.7-0.4,1.1c0,0.2,0,0.7,0,1.1l0,0.2l6,7.2L30.3,33.5z"/>
		<path class="st3" d="M16.5,38.8C15.8,38,15.6,37,15.7,36l1.3-6.9c0.2-1.2,0.9-2.3,1.8-3.1c2.3-1.9,5.6-1.6,7.5,0.7l3.8,4.6
			c1.9,2.3,1.6,5.6-0.7,7.5c-1,0.8-2.2,1.2-3.4,1.2l-7,0C18.1,40,17.1,39.6,16.5,38.8z"/>
		<path class="st4" d="M21.6,27l0.8,1l-1,0.8l-0.8-1L21.6,27z M24.2,28.1l0.8,1l-1,0.8l-0.8-1L24.2,28.1z"/>
		<path class="st5" d="M20.9,30.1l0.8,1l-1,0.8l-0.8-1L20.9,30.1z M19.7,32.7l0.8,1l-1,0.8l-0.8-1L19.7,32.7z M19,35.8l0.8,1l-1,0.8
			l-0.8-1L19,35.8z M22.2,35.7l0.8,1l-1,0.8l-0.8-1L22.2,35.7z M25,35l0.8,1l-1,0.8l-0.8-1L25,35z M28.2,34.8l0.8,1l-1,0.8l-0.8-1
			L28.2,34.8z M27.5,32.1l0.8,1l-1,0.8l-0.8-1L27.5,32.1z M24.9,30.9l0.8,1l-1,0.8l-0.8-1L24.9,30.9z M22.9,32.6l0.8,1l-1,0.8
			l-0.8-1L22.9,32.6z M27.1,39.2l-6.8,0c-0.8,0-1.6-0.2-2.2-0.7c-1-0.8-1.5-2-1.3-3.3l1.3-6.9c0.2-1,0.7-2,1.4-2.7
			c-0.2,0.1-0.4,0.2-0.5,0.4c-1,0.8-1.6,1.9-1.8,3.1l-1.2,6.8c-0.1,0.8-0.1,1.6,0.3,2.2c0.6,1.2,1.8,1.9,3,1.9l7,0
			c1.2,0,2.5-0.4,3.4-1.2c0.2-0.1,0.3-0.3,0.5-0.4C29.1,38.9,28.1,39.2,27.1,39.2z"/>
		<path class="st4" d="M32.7,30.2l0.8,1l-1,0.8l-0.8-1L32.7,30.2z"/>
	</g>
	<g>
		<path class="st6" d="M5,8.8h16.3V40H5V8.8z"/>
		<path class="st7" d="M5,8.8h8V40H5V8.8z"/>
		<path class="st8" d="M6.7,8.8h12.9v27.1H6.7V8.8z"/>
		<path class="st5" d="M6.7,16.1h12.9v19.8H6.7V16.1z"/>
		<g>
			<path class="st4" d="M13.8,16.1h-2V4c0-2.3,1.9-4,4.4-4h7.6v2h-7.6C15,2,13.8,2.7,13.8,4C13.8,4,13.8,16.1,13.8,16.1z"/>
			<path class="st3" d="M13.8,16.1h-2v-2.9h2V16.1z M13.8,10.7h-2V7.8h2V10.7z M13.8,5.4h-2V4c0-0.7,0.2-1.3,0.5-1.9l1.7,1
				c-0.2,0.3-0.2,0.6-0.2,1L13.8,5.4L13.8,5.4z M15.4,2.1l-0.5-1.9C15.3,0.1,15.7,0,16.2,0h1.7v2h-1.7C15.9,2,15.6,2,15.4,2.1z
				 M23.3,2h-2.9V0h2.9V2z"/>
		</g>
		<path class="st4" d="M16.2,22.7h1.7v1.7h-1.7V22.7z M16.2,19.4h1.7v1.7h-1.7V19.4z M16.2,26h1.7v1.7h-1.7V26z"/>
	</g>
</g>
</svg>
