<svg height="512pt" viewBox="0 0 512 512" width="512pt" xmlns="http://www.w3.org/2000/svg"><path d="m320 96v160c0 53.761719-70.238281 96-160 96s-160-42.238281-160-96v-160c0-53.761719 70.238281-96 160-96s160 42.238281 160 96zm0 0" fill="#77959e"/><path d="m320 97.601562v158.398438c0 53.761719-70.238281 96-160 96v-128c0-65.601562 66.878906-116.800781 160-126.398438zm0 0" fill="#62808c"/><path d="m352 512c-89.710938 0-160-42.175781-160-96v-160c0-53.824219 70.289062-96 160-96s160 42.175781 160 96v160c0 53.824219-70.289062 96-160 96zm0 0" fill="#77959e"/><path d="m512 256c0-53.019531-71.632812-96-160-96s-160 42.980469-160 96 71.632812 96 160 96 160-42.980469 160-96zm0 0" fill="#e4edfb"/><g fill="#8eb259"><path d="m400 240h32v32h-32zm0 0"/><path d="m336 240h32v32h-32zm0 0"/><path d="m272 240h32v32h-32zm0 0"/></g><path d="m320 96c0-53.019531-71.632812-96-160-96s-160 42.980469-160 96 71.632812 96 160 96 160-42.980469 160-96zm0 0" fill="#e4edfb"/><path d="m224 112h-128c-8.832031 0-16-7.167969-16-16s7.167969-16 16-16h128c8.832031 0 16 7.167969 16 16s-7.167969 16-16 16zm0 0" fill="#ffda47"/></svg>