<?xml version="1.0" encoding="utf-8"?>
<!-- Generator: Adobe Illustrator 21.0.0, SVG Export Plug-In . SVG Version: 6.00 Build 0)  -->
<svg version="1.1" id="Layer_1" xmlns="http://www.w3.org/2000/svg" xmlns:xlink="http://www.w3.org/1999/xlink" x="0px" y="0px"
	 viewBox="0 0 40 40" style="enable-background:new 0 0 40 40;" xml:space="preserve">
<style type="text/css">
	.st0{fill:none;}
	.st1{fill:#B0B4B9;}
	.st2{fill:#9DA2A5;}
	.st3{fill:#9B7CAB;}
	.st4{fill:#ECCE93;}
	.st5{fill:#E5BD76;}
	.st6{fill:#FFFFFF;}
	.st7{fill:#88679B;}
</style>
<g>
	<path class="st0" d="M0,0h40v40H0V0z"/>
	<g>
		<path class="st1" d="M40,9.6v6.3c0,3.5-2,6.5-5,7.9c-1.1,0.6-2.4,0.9-3.8,0.9v-2.5c1.4,0,2.7-0.5,3.8-1.3c1.5-1.1,2.5-3,2.5-5
			v-3.8h-6.3V9.6H40z"/>
		<path class="st2" d="M31.3,9.6H35v2.5h-3.8V9.6z M31.3,22.1c1.4,0,2.7-0.5,3.8-1.3v2.9c-1.1,0.6-2.4,0.9-3.8,0.9V22.1z"/>
		<path class="st3" d="M32.5,4.6v21.3c0,1.3-0.3,2.6-0.8,3.8c-1.4,2.9-4.4,5-7.9,5H11.3c-3.5,0-6.5-2.1-7.9-5
			c-0.5-1.1-0.8-2.4-0.8-3.8V4.6H32.5z"/>
		<path class="st1" d="M33.8,37.1H1.3c-0.7,0-1.3-0.6-1.3-1.3s0.6-1.3,1.3-1.3h32.5c0.7,0,1.3,0.6,1.3,1.3S34.4,37.1,33.8,37.1z"/>
		<path class="st1" d="M16.3,4.2v10h2.5v-10c0-0.7-0.6-1.3-1.3-1.3S16.3,3.5,16.3,4.2z"/>
		<path class="st4" d="M20.4,12.1h-5.8L10,15.2v11.9h15V15.2L20.4,12.1z"/>
		<path class="st5" d="M18.8,22.1h-2.5c-0.7,0-1.3-0.6-1.3-1.3s0.6-1.3,1.3-1.3h2.5c0.7,0,1.3,0.6,1.3,1.3S19.4,22.1,18.8,22.1z"/>
		<path class="st6" d="M5,7.1h2.5v2.4H5V7.1z M10,7.1h2.5v2.4H10V7.1z"/>
		<path class="st7" d="M23.8,32.1H11.3c-3.5,0-6.5-2.1-7.9-5c-0.5-1.1-0.8-2.4-0.8-3.8v2.5c0,1.3,0.3,2.6,0.8,3.8
			c1.4,2.9,4.4,5,7.9,5h12.5c3.5,0,6.5-2.1,7.9-5c0.5-1.1,0.8-2.4,0.8-3.8v-2.5c0,1.3-0.3,2.6-0.8,3.8C30.2,30,27.2,32.1,23.8,32.1z
			"/>
	</g>
</g>
</svg>
