<svg height="518pt" viewBox="-5 0 518 518.67798" width="518pt" xmlns="http://www.w3.org/2000/svg"><path d="m183.335938 282.355469v174.890625l-182.996094-179.589844 48.300781-72.292969zm0 0" fill="#77959e"/><path d="m122.066406 247.34375 61.269532 35.011719v174.890625l-64.835938-63.699219v-118c0-9.722656 1.296875-19.289063 3.566406-28.203125zm0 0" fill="#62808c"/><path d="m507.507812 275.546875v210.714844c0 17.828125-14.585937 32.417969-32.417968 32.417969h-291.753906c-17.832032 0-32.417969-14.589844-32.417969-32.417969v-210.714844c0-5.511719.484375-11.019531 1.621093-16.207031h353.347657c1.136719 5.1875 1.621093 10.695312 1.621093 16.207031zm0 0" fill="#77959e"/><path d="m329.214844 162.085938c8.945312 0 16.207031 7.261718 16.207031 16.210937v32.417969h-32.417969v-32.417969c0-8.949219 7.261719-16.210937 16.210938-16.210937zm0 0" fill="#787680"/><path d="m345.421875 178.296875v32.417969h-32.417969v-32.417969c0-8.949219 7.261719-16.210937 16.210938-16.210937 8.945312 0 16.207031 7.261718 16.207031 16.210937zm0 0" fill="#77959e"/><path d="m394.046875 0h-129.667969c-26.746094 0-48.625 21.882812-48.625 48.625v162.089844h32.414063v-113.460938h162.089843v113.460938h32.417969v-162.089844c0-26.742188-21.882812-48.625-48.628906-48.625zm-145.878906 64.835938v-16.210938c0-8.914062 7.296875-16.207031 16.210937-16.207031h129.667969c8.914063 0 16.210937 7.292969 16.210937 16.207031v16.210938zm0 0" fill="#b0b4b9"/><path d="m231.960938 162.085938h16.207031v48.628906h-32.414063v-47.332032c5.347656-.972656 10.695313-1.296874 16.207032-1.296874zm0 0" fill="#9da2a5"/><g fill="#fff"><path d="m215.753906 421.425781h32.414063v32.417969h-32.414063zm0 0"/><path d="m280.585938 421.425781h32.417968v32.417969h-32.417968zm0 0"/><path d="m345.421875 421.425781h32.417969v32.417969h-32.417969zm0 0"/><path d="m410.257812 421.425781h32.417969v32.417969h-32.417969zm0 0"/></g><path d="m442.675781 163.382812v47.332032h-32.417969v-48.628906h16.207032c5.511718 0 10.859375.324218 16.210937 1.296874zm0 0" fill="#9da2a5"/><path d="m150.917969 275.546875h356.589843v32.417969h-356.589843zm0 0" fill="#62808c"/><path d="m426.464844 194.503906h-194.503906c-44.6875 0-81.042969 36.355469-81.042969 81.042969h356.589843c0-44.6875-36.355468-81.042969-81.042968-81.042969zm0 0" fill="#ffda47"/></svg>