<svg height="512pt" viewBox="0 -37 512 512" width="512pt" xmlns="http://www.w3.org/2000/svg"><path d="m512 85.105469v80c0 44.636719-26.238281 83.199219-64 101.117187-14.558594 7.042969-30.878906 10.882813-48 10.882813v-32c18.078125 0 34.71875-5.921875 48-16 19.359375-14.5625 32-37.921875 32-64v-48h-80v-32zm0 0" fill="#b0b4b9"/><path d="m400 85.105469h48v32h-48zm0 0" fill="#9da2a5"/><path d="m400 245.105469c18.078125 0 34.71875-5.921875 48-16v37.117187c-14.558594 7.042969-30.878906 10.882813-48 10.882813zm0 0" fill="#9da2a5"/><path d="m416 21.105469v272c0 17.117187-3.839844 33.4375-10.878906 48-17.921875 37.757812-56.480469 64-101.121094 64h-160c-44.640625 0-83.199219-26.242188-101.121094-64-7.039062-14.5625-10.878906-30.882813-10.878906-48v-272zm0 0" fill="#9b7cab"/><path d="m432 437.105469h-416c-8.832031 0-16-7.167969-16-16s7.167969-16 16-16h416c8.832031 0 16 7.167969 16 16s-7.167969 16-16 16zm0 0" fill="#b0b4b9"/><path d="m208 16v128h32v-128c0-8.832031-7.167969-16-16-16s-16 7.167969-16 16zm0 0" fill="#b0b4b9"/><path d="m260.847656 117.105469h-73.695312l-59.152344 39.4375v152.5625h192v-152.5625zm0 0" fill="#ecce93"/><path d="m240 245.105469h-32c-8.832031 0-16-7.167969-16-16s7.167969-16 16-16h32c8.832031 0 16 7.167969 16 16s-7.167969 16-16 16zm0 0" fill="#e5bd76"/><path d="m64 53.902344h32v31.203125h-32zm0 0" fill="#fff"/><path d="m128 53.902344h32v31.203125h-32zm0 0" fill="#fff"/><path d="m304 373.105469h-160c-44.640625 0-83.199219-26.242188-101.121094-64-7.039062-14.5625-10.878906-30.882813-10.878906-48v32c0 17.117187 3.839844 33.4375 10.878906 48 17.921875 37.757812 56.480469 64 101.121094 64h160c44.640625 0 83.199219-26.242188 101.121094-64 7.039062-14.5625 10.878906-30.882813 10.878906-48v-32c0 17.117187-3.839844 33.4375-10.878906 48-17.921875 37.757812-56.480469 64-101.121094 64zm0 0" fill="#88679b"/></svg>