<svg height="512pt" viewBox="0 -80 512 512" width="512pt" xmlns="http://www.w3.org/2000/svg"><path d="m208 144v160h-16c-20 0-36.480469-6.398438-50.71875-16.480469-20-13.917969-35.679688-34.71875-50.082031-53.917969-23.199219-30.882812-43.199219-57.601562-75.199219-57.601562h-16v-96h16c44.800781 0 72.480469 18.398438 96.800781 34.71875 13.597657 8.960938 26.078125 17.28125 40.800781 22.722656 11.039063 4.160156 23.359376 6.558594 38.398438 6.558594zm0 0" fill="#c59969"/><path d="m192 144c-15.039062 0-27.359375-2.398438-38.398438-6.558594-16.320312 24.957032-25.601562 54.71875-25.601562 86.558594 0 7.519531.703125 14.847656 1.710938 22.097656-14.640626-13.042968-27.039063-29.203125-38.511719-44.496094-23.199219-30.882812-43.199219-57.601562-75.199219-57.601562h-16v32h16c32 0 52 26.71875 75.199219 57.601562 14.402343 19.199219 30.082031 40 50.082031 53.917969 14.238281 10.082031 30.71875 16.480469 50.71875 16.480469h16v-160zm0 0" fill="#ba8a5a"/><path d="m384 352h-96c-70.574219 0-128-57.425781-128-128s57.425781-128 128-128h96c70.574219 0 128 57.425781 128 128s-57.425781 128-128 128zm0 0" fill="#ecce93"/><path d="m320 96h32v80h-32zm0 0" fill="#e5bd76"/><path d="m368 288h-64c-8.832031 0-16-7.167969-16-16v-96c0-8.832031 7.167969-16 16-16h64c8.832031 0 16 7.167969 16 16v96c0 8.832031-7.167969 16-16 16zm0 0" fill="#e4edfb"/><path d="m352 32v-16c0-8.832031-7.167969-16-16-16s-16 7.167969-16 16v16h-48c-8.832031 0-16 7.167969-16 16s7.167969 16 16 16h128c8.832031 0 16-7.167969 16-16s-7.167969-16-16-16zm0 0" fill="#aa854b"/><path d="m416 192h32v32h-32zm0 0" fill="#fff"/><path d="m224 224h32v32h-32zm0 0" fill="#fff"/><path d="m384 320h-96c-65.152344 0-118.976562-48.960938-126.894531-112-.65625 5.246094-1.105469 10.574219-1.105469 16 0 70.574219 57.425781 128 128 128h96c70.574219 0 128-57.425781 128-128 0-5.425781-.449219-10.753906-1.105469-16-7.917969 63.039062-61.742187 112-126.894531 112zm0 0" fill="#e5bd76"/></svg>