<?xml version="1.0" encoding="utf-8"?>
<!-- Generator: Adobe Illustrator 21.0.0, SVG Export Plug-In . SVG Version: 6.00 Build 0)  -->
<svg version="1.1" id="Layer_1" xmlns="http://www.w3.org/2000/svg" xmlns:xlink="http://www.w3.org/1999/xlink" x="0px" y="0px"
	 viewBox="0 0 26 26" style="enable-background:new 0 0 26 26;" xml:space="preserve">
<style type="text/css">
	.st0{fill:#FFFFFF;}
	.st1{fill:#D7DEE2;}
</style>
<g>
	<g id="verified">
		<g id="Group_318">
			<path id="Path_1162" class="st0" d="M19.2,9.9l-7.3,7.3c-0.3,0.3-0.7,0.3-1,0l-4.1-4.1c-0.3-0.3-0.3-0.8,0-1.1
				c0.3-0.3,0.8-0.3,1.1,0l3.5,3.5l6.7-6.7c0.3-0.3,0.8-0.3,1.1,0C19.5,9.1,19.5,9.6,19.2,9.9z"/>
			<path id="Path_1163" class="st1" d="M22.2,3.8c-5.1-5.1-13.3-5.1-18.4,0c-5.1,5.1-5.1,13.3,0,18.4C6.2,24.7,9.5,26,13,26
				c3.4,0,6.7-1.4,9.2-3.8c2.5-2.4,3.8-5.7,3.8-9.2C26,9.6,24.6,6.3,22.2,3.8z M19.2,9.9l-7.3,7.3c-0.3,0.3-0.7,0.3-1,0l-4.1-4.1
				c-0.3-0.3-0.3-0.8,0-1.1c0.3-0.3,0.8-0.3,1.1,0l3.5,3.5l6.7-6.7c0.3-0.3,0.8-0.3,1.1,0C19.5,9.1,19.5,9.6,19.2,9.9z"/>
		</g>
	</g>
</g>
</svg>
